SplineFontDB: 3.2
FontName: Square-Light
FullName: Square Light
FamilyName: Square Light
Weight: Light
Copyright: Copyright (c) 2020, retr0
UComments: "2020-10-21: Created with FontForge (http://fontforge.org)"
Version: 001.000
ItalicAngle: 0
UnderlinePosition: -100
UnderlineWidth: 50
Ascent: 800
Descent: 200
InvalidEm: 0
LayerCount: 2
Layer: 0 0 "Back" 1
Layer: 1 0 "Fore" 1
XUID: [1021 774 -246617221 31412]
StyleMap: 0x0000
FSType: 0
OS2Version: 0
OS2_WeightWidthSlopeOnly: 0
OS2_UseTypoMetrics: 1
CreationTime: 1603300061
ModificationTime: 1605718183
PfmFamily: 33
TTFWeight: 300
TTFWidth: 5
LineGap: 90
VLineGap: 0
OS2TypoAscent: 0
OS2TypoAOffset: 1
OS2TypoDescent: 0
OS2TypoDOffset: 1
OS2TypoLinegap: 90
OS2WinAscent: 0
OS2WinAOffset: 1
OS2WinDescent: 0
OS2WinDOffset: 1
HheadAscent: 0
HheadAOffset: 1
HheadDescent: 0
HheadDOffset: 1
OS2Vendor: 'PfEd'
Lookup: 258 0 0 "j" { "before j symbols 2" [150,15,2] "before j uppercase" [150,15,2] "before j lowercase" [150,15,2] "before j symbols 1" [150,15,2] } ['kern' ('DFLT' <'dflt' > 'latn' <'dflt' > ) ]
Lookup: 258 0 0 "eth" { "eth after symbols 2" [150,15,2] "eth after symbols 1" [150,15,2] "eth after lowercase" [150,15,2] "eth after uppercase" [150,15,2] } ['kern' ('DFLT' <'dflt' > 'latn' <'dflt' > ) ]
Lookup: 258 0 0 "V" { "before V symbols 2" [150,15,2] "after V symbols 2" [150,15,2] "before V symbols" [150,15,2] "V after symbols" [150,15,2] "before V lowercase" [150,15,2] "V after lowercase" [150,15,6] } ['kern' ('DFLT' <'dflt' > 'latn' <'dflt' > ) ]
MarkAttachClasses: 1
MarkAttachSets: 1
"" 0 
DEI: 91125
LangName: 1033 "" "" "" "" "" "" "" "" "" "" "" "" "" "" "" "" "Square"
Encoding: ISO8859-1
UnicodeInterp: none
NameList: AGL For New Fonts
DisplaySize: -48
AntiAlias: 1
FitToEm: 0
WinInfo: 0 39 14
BeginPrivate: 0
EndPrivate
TeXData: 1 0 0 209715 104857 69905 419430 1048576 69905 783286 444596 497025 792723 393216 433062 380633 303038 157286 324010 404750 52429 2506097 1059062 262144
BeginChars: 256 190

StartChar: A
Encoding: 65 65 0
Width: 500
Flags: HMW
LayerCount: 2
Fore
SplineSet
100 350 m 1
 100 0 l 1
 50 0 l 1
 50 600 l 1
 450 600 l 1
 450 0 l 1
 400 0 l 1
 400 350 l 1
 100 350 l 1
100 550 m 1
 100 400 l 1
 400 400 l 1
 400 550 l 1
 100 550 l 1
EndSplineSet
Validated: 1
EndChar

StartChar: B
Encoding: 66 66 1
Width: 500
Flags: HMW
LayerCount: 2
Fore
SplineSet
400 0 m 1
 50 0 l 1
 50 600 l 1
 325 600 l 1
 325 400 l 1
 450 400 l 1
 450 0 l 1
 400 0 l 1
100 550 m 1
 100 400 l 1
 275 400 l 1
 275 550 l 1
 100 550 l 1
100 350 m 1
 100 50 l 1
 400 50 l 1
 400 350 l 1
 100 350 l 1
EndSplineSet
Validated: 1
EndChar

StartChar: C
Encoding: 67 67 2
Width: 500
Flags: HMW
LayerCount: 2
Fore
SplineSet
50 600 m 1
 100 600 l 1
 450 600 l 1
 450 550 l 1
 100 550 l 1
 100 50 l 1
 450 50 l 1
 450 0 l 1
 100 0 l 1
 50 0 l 1
 50 50 l 1
 50 550 l 1
 50 600 l 1
EndSplineSet
Validated: 1
EndChar

StartChar: D
Encoding: 68 68 3
Width: 600
Flags: HMW
LayerCount: 2
Fore
SplineSet
212.5 600 m 1
 550 600 l 1
 550 0 l 1
 50 0 l 1
 50 50 l 1
 162.5 50 l 1
 162.5 550 l 1
 50 550 l 1
 50 600 l 1
 212.5 600 l 1
500 50 m 1
 500 550 l 1
 212.5 550 l 1
 212.5 50 l 1
 500 50 l 1
EndSplineSet
Validated: 1
EndChar

StartChar: E
Encoding: 69 69 4
Width: 500
Flags: HMW
LayerCount: 2
Fore
SplineSet
450 0 m 1
 100 0 l 1
 50 0 l 1
 50 50 l 1
 50 350 l 1
 50 400 l 1
 50 550 l 1
 50 600 l 1
 100 600 l 1
 450 600 l 1
 450 550 l 1
 100 550 l 1
 100 400 l 1
 450 400 l 1
 450 350 l 1
 100 350 l 1
 100 50 l 1
 450 50 l 1
 450 0 l 1
EndSplineSet
Validated: 1
EndChar

StartChar: F
Encoding: 70 70 5
Width: 500
Flags: HMW
LayerCount: 2
Fore
SplineSet
50 600 m 1
 100 600 l 1
 450 600 l 1
 450 550 l 1
 100 550 l 1
 100 400 l 1
 450 400 l 1
 450 350 l 1
 100 350 l 1
 100 0 l 1
 50 0 l 1
 50 350 l 1
 50 400 l 1
 50 550 l 1
 50 600 l 1
EndSplineSet
Validated: 1
EndChar

StartChar: G
Encoding: 71 71 6
Width: 500
Flags: HMW
LayerCount: 2
Fore
SplineSet
400 0 m 1
 100 0 l 1
 50 0 l 1
 50 50 l 1
 50 550 l 1
 50 600 l 1
 100 600 l 1
 450 600 l 1
 450 550 l 1
 100 550 l 1
 100 50 l 1
 400 50 l 1
 400 350 l 1
 250 350 l 1
 250 400 l 1
 400 400 l 1
 450 400 l 1
 450 350 l 1
 450 50 l 1
 450 0 l 1
 400 0 l 1
EndSplineSet
Validated: 1
EndChar

StartChar: H
Encoding: 72 72 7
Width: 500
Flags: HMW
LayerCount: 2
Fore
SplineSet
400 600 m 1
 450 600 l 1
 450 400 l 1
 450 350 l 1
 450 0 l 1
 400 0 l 1
 400 350 l 1
 100 350 l 1
 100 0 l 1
 50 0 l 1
 50 350 l 1
 50 400 l 1
 50 600 l 1
 100 600 l 1
 100 400 l 1
 400 400 l 1
 400 600 l 1
EndSplineSet
Validated: 1
EndChar

StartChar: I
Encoding: 73 73 8
Width: 400
Flags: HMW
LayerCount: 2
Fore
SplineSet
350 550 m 1
 225 550 l 1
 225 50 l 1
 350 50 l 1
 350 0 l 1
 225 0 l 1
 175 0 l 1
 50 0 l 1
 50 50 l 1
 175 50 l 1
 175 550 l 1
 50 550 l 1
 50 600 l 1
 175 600 l 1
 225 600 l 1
 350 600 l 1
 350 550 l 1
EndSplineSet
Validated: 1
EndChar

StartChar: J
Encoding: 74 74 9
Width: 500
Flags: HMW
LayerCount: 2
Fore
SplineSet
400 0 m 1
 100 0 l 1
 50 0 l 1
 50 50 l 1
 50 150 l 1
 100 150 l 1
 100 50 l 1
 400 50 l 1
 400 600 l 1
 450 600 l 1
 450 50 l 1
 450 0 l 1
 400 0 l 1
EndSplineSet
Validated: 1
EndChar

StartChar: K
Encoding: 75 75 10
Width: 500
Flags: HMW
LayerCount: 2
Fore
SplineSet
312.5 400 m 1
 400 400 l 1
 450 400 l 1
 450 350 l 1
 450 0 l 1
 400 0 l 1
 400 350 l 1
 312.5 350 l 1
 262.5 350 l 1
 100 350 l 1
 100 0 l 1
 50 0 l 1
 50 350 l 1
 50 400 l 1
 50 600 l 1
 100 600 l 1
 100 400 l 1
 262.5 400 l 1
 262.5 600 l 1
 312.5 600 l 1
 312.5 400 l 1
EndSplineSet
Validated: 1
EndChar

StartChar: L
Encoding: 76 76 11
Width: 500
Flags: HMW
LayerCount: 2
Fore
SplineSet
100 600 m 1
 100 50 l 1
 450 50 l 1
 450 0 l 1
 100 0 l 1
 50 0 l 1
 50 50 l 1
 50 600 l 1
 100 600 l 1
EndSplineSet
Validated: 1
EndChar

StartChar: M
Encoding: 77 77 12
Width: 600
Flags: HMW
LayerCount: 2
Fore
SplineSet
325 600 m 1
 500 600 l 1
 550 600 l 1
 550 550 l 1
 550 0 l 1
 500 0 l 1
 500 550 l 1
 325 550 l 1
 325 0 l 1
 275 0 l 1
 275 550 l 1
 100 550 l 1
 100 0 l 1
 50 0 l 1
 50 550 l 1
 50 600 l 1
 100 600 l 1
 275 600 l 1
 325 600 l 1
EndSplineSet
Validated: 1
EndChar

StartChar: N
Encoding: 78 78 13
Width: 500
Flags: HMW
LayerCount: 2
Fore
SplineSet
400 400 m 1
 400 600 l 1
 450 600 l 1
 450 0 l 1
 400 0 l 1
 400 350 l 1
 100 521.4296875 l 1
 100 0 l 1
 50 0 l 1
 50 550 l 1
 50 600 l 1
 100 600 l 1
 100 571.4296875 l 1
 400 400 l 1
EndSplineSet
Validated: 1
EndChar

StartChar: O
Encoding: 79 79 14
Width: 500
Flags: HMW
LayerCount: 2
Fore
SplineSet
400 0 m 1
 50 0 l 1
 50 600 l 1
 450 600 l 1
 450 0 l 1
 400 0 l 1
100 550 m 1
 100 50 l 1
 400 50 l 1
 400 550 l 1
 100 550 l 1
EndSplineSet
Validated: 1
EndChar

StartChar: P
Encoding: 80 80 15
Width: 500
Flags: HMW
LayerCount: 2
Fore
SplineSet
100 600 m 1
 450 600 l 1
 450 350 l 1
 100 350 l 1
 100 0 l 1
 50 0 l 1
 50 600 l 1
 100 600 l 1
400 400 m 1
 400 550 l 1
 100 550 l 1
 100 400 l 1
 400 400 l 1
EndSplineSet
Validated: 1
EndChar

StartChar: Q
Encoding: 81 81 16
Width: 520
Flags: HMW
LayerCount: 2
Fore
SplineSet
464.479492188 50 m 1
 464.479492188 34.7802734375 l 1
 520 -18.2197265625 l 1
 483.3203125 -52.7001953125 l 1
 428.0703125 0 l 1
 50 0 l 1
 50 600 l 1
 464.479492188 600 l 1
 464.479492188 50 l 1
101.809570312 550 m 1
 101.809570312 50 l 1
 412.669921875 50 l 1
 412.669921875 550 l 1
 101.809570312 550 l 1
EndSplineSet
EndChar

StartChar: R
Encoding: 82 82 17
Width: 500
Flags: HMW
LayerCount: 2
Fore
SplineSet
100 350 m 1
 100 0 l 1
 50 0 l 1
 50 600 l 1
 325 600 l 1
 325 400 l 1
 450 400 l 1
 450 0 l 1
 400 0 l 1
 400 350 l 1
 100 350 l 1
100 550 m 1
 100 400 l 1
 275 400 l 1
 275 550 l 1
 100 550 l 1
EndSplineSet
Validated: 1
EndChar

StartChar: S
Encoding: 83 83 18
Width: 500
Flags: HMW
LayerCount: 2
Fore
SplineSet
50 600 m 1
 100 600 l 1
 450 600 l 1
 450 550 l 1
 100 550 l 1
 100 400 l 1
 400 400 l 1
 450 400 l 1
 450 350 l 1
 450 50 l 1
 450 0 l 1
 400 0 l 1
 50 0 l 1
 50 50 l 1
 400 50 l 1
 400 350 l 1
 100 350 l 1
 50 350 l 1
 50 400 l 1
 50 550 l 1
 50 600 l 1
EndSplineSet
Validated: 1
EndChar

StartChar: T
Encoding: 84 84 19
Width: 500
Flags: HMW
LayerCount: 2
Fore
SplineSet
225 600 m 1
 275 600 l 1
 450 600 l 1
 450 550 l 1
 275 550 l 1
 275 0 l 1
 225 0 l 1
 225 550 l 1
 50 550 l 1
 50 600 l 1
 225 600 l 1
EndSplineSet
Validated: 1
EndChar

StartChar: U
Encoding: 85 85 20
Width: 500
Flags: HMW
LayerCount: 2
Fore
SplineSet
400 50 m 1
 400 600 l 1
 450 600 l 1
 450 50 l 1
 450 0 l 1
 400 0 l 1
 100 0 l 1
 50 0 l 1
 50 50 l 1
 50 600 l 1
 100 600 l 1
 100 50 l 1
 400 50 l 1
EndSplineSet
Validated: 1
EndChar

StartChar: V
Encoding: 86 86 21
Width: 500
Flags: HMW
LayerCount: 2
Fore
SplineSet
250 46.150390625 m 1
 400 600 l 1
 450 600 l 1
 287.5 0 l 1
 262.5 0 l 1
 237.5 0 l 1
 212.5 0 l 1
 50 600 l 1
 100 600 l 1
 250 46.150390625 l 1
EndSplineSet
Validated: 1
EndChar

StartChar: W
Encoding: 87 87 22
Width: 600
Flags: HMW
LayerCount: 2
Fore
SplineSet
500 50 m 1
 500 600 l 1
 550 600 l 1
 550 50 l 1
 550 0 l 1
 500 0 l 1
 325 0 l 1
 275 0 l 1
 100 0 l 1
 50 0 l 1
 50 50 l 1
 50 600 l 1
 100 600 l 1
 100 50 l 1
 275 50 l 1
 275 600 l 1
 325 600 l 1
 325 50 l 1
 500 50 l 1
EndSplineSet
Validated: 1
EndChar

StartChar: X
Encoding: 88 88 23
Width: 500
Flags: HMW
LayerCount: 2
Fore
SplineSet
390 600 m 1
 450 600 l 1
 280 300 l 1
 450 0 l 1
 390 0 l 1
 250 247.059570312 l 1
 110 0 l 1
 50 0 l 1
 220 300 l 1
 50 600 l 1
 110 600 l 1
 250 352.940429688 l 1
 390 600 l 1
EndSplineSet
Validated: 1
EndChar

StartChar: Y
Encoding: 89 89 24
Width: 500
Flags: HMW
LayerCount: 2
Fore
SplineSet
400 400 m 1
 400 600 l 1
 450 600 l 1
 450 400 l 1
 450 350 l 1
 400 350 l 1
 275 350 l 1
 275 0 l 1
 225 0 l 1
 225 350 l 1
 100 350 l 1
 50 350 l 1
 50 400 l 1
 50 600 l 1
 100 600 l 1
 100 400 l 1
 225 400 l 1
 275 400 l 1
 400 400 l 1
EndSplineSet
Validated: 1
EndChar

StartChar: Z
Encoding: 90 90 25
Width: 500
Flags: HMW
LayerCount: 2
Fore
SplineSet
450 600 m 1
 421.669921875 550 l 1
 138.330078125 50 l 1
 450 50 l 1
 450 0 l 1
 110 0 l 1
 50 0 l 1
 78.330078125 50 l 1
 361.669921875 550 l 1
 50 550 l 1
 50 600 l 1
 390 600 l 1
 450 600 l 1
EndSplineSet
Validated: 1
EndChar

StartChar: a
Encoding: 97 97 27
Width: 500
Flags: HMW
LayerCount: 2
Fore
SplineSet
50 400 m 1
 450 400 l 1
 450 0 l 1
 50 0 l 1
 50 225 l 1
 400 225 l 1
 400 350 l 1
 50 350 l 1
 50 400 l 1
400 50 m 1
 400 175 l 1
 100 175 l 1
 100 50 l 1
 400 50 l 1
EndSplineSet
Validated: 1
EndChar

StartChar: b
Encoding: 98 98 28
Width: 500
Flags: HMW
LayerCount: 2
Fore
SplineSet
400 0 m 1
 50 0 l 1
 50 600 l 1
 100 600 l 1
 100 400 l 1
 450 400 l 1
 450 0 l 1
 400 0 l 1
100 350 m 1
 100 50 l 1
 400 50 l 1
 400 350 l 1
 100 350 l 1
EndSplineSet
Validated: 1
EndChar

StartChar: c
Encoding: 99 99 29
Width: 500
Flags: HMW
LayerCount: 2
Fore
SplineSet
50 400 m 1
 100 400 l 1
 450 400 l 1
 450 350 l 1
 100 350 l 1
 100 50 l 1
 450 50 l 1
 450 0 l 1
 100 0 l 1
 50 0 l 1
 50 50 l 1
 50 350 l 1
 50 400 l 1
EndSplineSet
Validated: 1
EndChar

StartChar: d
Encoding: 100 100 30
Width: 500
Flags: HMW
LayerCount: 2
Fore
SplineSet
400 400 m 1
 400 600 l 1
 450 600 l 1
 450 0 l 1
 50 0 l 1
 50 400 l 1
 400 400 l 1
400 50 m 1
 400 350 l 1
 100 350 l 1
 100 50 l 1
 400 50 l 1
EndSplineSet
Validated: 1
EndChar

StartChar: e
Encoding: 101 101 31
Width: 500
Flags: HMW
LayerCount: 2
Fore
SplineSet
100 400 m 1
 450 400 l 1
 450 175 l 1
 100 175 l 1
 100 50 l 1
 450 50 l 1
 450 0 l 1
 50 0 l 1
 50 400 l 1
 100 400 l 1
400 225 m 1
 400 350 l 1
 100 350 l 1
 100 225 l 1
 400 225 l 1
EndSplineSet
Validated: 1
EndChar

StartChar: f
Encoding: 102 102 32
Width: 500
Flags: HMW
LayerCount: 2
Fore
SplineSet
225 600 m 1
 275 600 l 1
 450 600 l 1
 450 550 l 1
 275 550 l 1
 275 400 l 1
 450 400 l 1
 450 350 l 1
 275 350 l 1
 275 0 l 1
 225 0 l 1
 225 350 l 1
 50 350 l 1
 50 400 l 1
 225 400 l 1
 225 550 l 1
 225 600 l 1
EndSplineSet
Validated: 1
EndChar

StartChar: g
Encoding: 103 103 33
Width: 500
Flags: HMW
LayerCount: 2
Fore
SplineSet
100 400 m 1
 450 400 l 1
 450 -200 l 1
 50 -200 l 1
 50 -150 l 1
 400 -150 l 1
 400 0 l 1
 50 0 l 1
 50 400 l 1
 100 400 l 1
400 50 m 1
 400 350 l 1
 100 350 l 1
 100 50 l 1
 400 50 l 1
EndSplineSet
Validated: 1
EndChar

StartChar: h
Encoding: 104 104 34
Width: 500
Flags: HMW
LayerCount: 2
Fore
SplineSet
400 400 m 1
 450 400 l 1
 450 350 l 1
 450 0 l 1
 400 0 l 1
 400 350 l 1
 100 350 l 1
 100 0 l 1
 50 0 l 1
 50 350 l 1
 50 400 l 1
 50 600 l 1
 100 600 l 1
 100 400 l 1
 400 400 l 1
EndSplineSet
Validated: 1
EndChar

StartChar: i
Encoding: 105 105 35
Width: 150
Flags: HMW
LayerCount: 2
Fore
SplineSet
50 0 m 1
 50 400 l 1
 100 400 l 1
 100 0 l 1
 50 0 l 1
50 550 m 1
 50 600 l 1
 100 600 l 1
 100 550 l 1
 50 550 l 1
EndSplineSet
Validated: 1
EndChar

StartChar: j
Encoding: 106 106 36
Width: 300
Flags: HMW
LayerCount: 2
Fore
SplineSet
200 -150 m 1
 200 400 l 1
 250 400 l 1
 250 -150 l 1
 250 -200 l 1
 200 -200 l 1
 50 -200 l 1
 50 -150 l 1
 200 -150 l 1
200 550 m 1
 200 600 l 1
 250 600 l 1
 250 550 l 1
 200 550 l 1
EndSplineSet
Validated: 1
EndChar

StartChar: k
Encoding: 107 107 37
Width: 500
Flags: HMW
LayerCount: 2
Fore
SplineSet
312.5 400 m 1
 400 400 l 1
 450 400 l 1
 450 350 l 1
 450 0 l 1
 400 0 l 1
 400 350 l 1
 100 350 l 1
 100 0 l 1
 50 0 l 1
 50 350 l 1
 50 400 l 1
 50 600 l 1
 100 600 l 1
 100 400 l 1
 262.5 400 l 1
 262.5 500 l 1
 312.5 500 l 1
 312.5 400 l 1
EndSplineSet
Validated: 1
EndChar

StartChar: l
Encoding: 108 108 38
Width: 150
Flags: HMW
LayerCount: 2
Fore
SplineSet
50 0 m 1
 50 600 l 1
 100 600 l 1
 100 0 l 1
 50 0 l 1
EndSplineSet
Validated: 1
EndChar

StartChar: m
Encoding: 109 109 39
Width: 600
Flags: HMW
LayerCount: 2
Fore
SplineSet
275 350 m 1
 106.870117188 350 l 1
 106.870117188 0 l 1
 56.8701171875 0 l 1
 56.8701171875 350 l 1
 56.8701171875 400 l 1
 106.870117188 400 l 1
 275 400 l 1
 325 400 l 1
 493.129882812 400 l 1
 543.129882812 400 l 1
 543.129882812 350 l 1
 543.129882812 0 l 1
 493.129882812 0 l 1
 493.129882812 350 l 1
 325 350 l 1
 325 0 l 1
 275 0 l 1
 275 350 l 1
EndSplineSet
Validated: 1
EndChar

StartChar: n
Encoding: 110 110 40
Width: 500
Flags: HMW
LayerCount: 2
Fore
SplineSet
100 400 m 1
 400 400 l 1
 450 400 l 1
 450 350 l 1
 450 0 l 1
 400 0 l 1
 400 350 l 1
 100 350 l 1
 100 0 l 1
 50 0 l 1
 50 350 l 1
 50 400 l 1
 100 400 l 1
EndSplineSet
Validated: 1
EndChar

StartChar: o
Encoding: 111 111 41
Width: 500
Flags: HMW
LayerCount: 2
Fore
SplineSet
100 400 m 1
 450 400 l 1
 450 0 l 1
 50 0 l 1
 50 400 l 1
 100 400 l 1
400 50 m 1
 400 350 l 1
 100 350 l 1
 100 50 l 1
 400 50 l 1
EndSplineSet
Validated: 1
EndChar

StartChar: p
Encoding: 112 112 42
Width: 500
Flags: HMW
LayerCount: 2
Fore
SplineSet
100 400 m 1
 450 400 l 1
 450 0 l 1
 100 0 l 1
 100 -200 l 1
 50 -200 l 1
 50 400 l 1
 100 400 l 1
400 50 m 1
 400 350 l 1
 100 350 l 1
 100 50 l 1
 400 50 l 1
EndSplineSet
Validated: 1
EndChar

StartChar: q
Encoding: 113 113 43
Width: 500
Flags: HMW
LayerCount: 2
Fore
SplineSet
100 400 m 1
 450 400 l 1
 450 -200 l 1
 400 -200 l 1
 400 0 l 1
 50 0 l 1
 50 400 l 1
 100 400 l 1
400 50 m 1
 400 350 l 1
 100 350 l 1
 100 50 l 1
 400 50 l 1
EndSplineSet
Validated: 1
EndChar

StartChar: r
Encoding: 114 114 44
Width: 500
Flags: HMW
LayerCount: 2
Fore
SplineSet
100 350 m 1
 100 0 l 1
 50 0 l 1
 50 350 l 1
 50 400 l 1
 100 400 l 1
 450 400 l 1
 450 350 l 1
 100 350 l 1
EndSplineSet
Validated: 1
EndChar

StartChar: s
Encoding: 115 115 45
Width: 500
Flags: HMW
LayerCount: 2
Fore
SplineSet
50 400 m 1
 100 400 l 1
 450 400 l 1
 450 350 l 1
 100 350 l 1
 100 225 l 1
 400 225 l 1
 450 225 l 1
 450 175 l 1
 450 50 l 1
 450 0 l 1
 400 0 l 1
 50 0 l 1
 50 50 l 1
 400 50 l 1
 400 175 l 1
 100 175 l 1
 50 175 l 1
 50 225 l 1
 50 350 l 1
 50 400 l 1
EndSplineSet
Validated: 1
EndChar

StartChar: t
Encoding: 116 116 46
Width: 500
Flags: HMW
LayerCount: 2
Fore
SplineSet
275 600 m 1
 275 400 l 1
 450 400 l 1
 450 350 l 1
 275 350 l 1
 275 0 l 1
 225 0 l 1
 225 350 l 1
 50 350 l 1
 50 400 l 1
 225 400 l 1
 225 600 l 1
 275 600 l 1
EndSplineSet
Validated: 1
EndChar

StartChar: u
Encoding: 117 117 47
Width: 500
Flags: HMW
LayerCount: 2
Fore
SplineSet
400 50 m 1
 400 400 l 1
 450 400 l 1
 450 50 l 1
 450 0 l 1
 400 0 l 1
 100 0 l 1
 50 0 l 1
 50 50 l 1
 50 400 l 1
 100 400 l 1
 100 50 l 1
 400 50 l 1
EndSplineSet
Validated: 1
EndChar

StartChar: v
Encoding: 118 118 48
Width: 500
Flags: HMW
LayerCount: 2
Fore
SplineSet
250 57.1396484375 m 1
 400 400 l 1
 450 400 l 1
 275 0 l 1
 225 0 l 1
 50 400 l 1
 100 400 l 1
 250 57.1396484375 l 1
EndSplineSet
Validated: 1
EndChar

StartChar: w
Encoding: 119 119 49
Width: 600
Flags: HMW
LayerCount: 2
Fore
SplineSet
500 50 m 1
 500 400 l 1
 550 400 l 1
 550 50 l 1
 550 0 l 1
 500 0 l 1
 325 0 l 1
 275 0 l 1
 100 0 l 1
 50 0 l 1
 50 50 l 1
 50 400 l 1
 100 400 l 1
 100 50 l 1
 275 50 l 1
 275 400 l 1
 325 400 l 1
 325 50 l 1
 500 50 l 1
EndSplineSet
Validated: 1
EndChar

StartChar: x
Encoding: 120 120 50
Width: 500
Flags: HMW
LayerCount: 2
Fore
SplineSet
380 400 m 1
 450 400 l 1
 285 200 l 1
 450 0 l 1
 380 0 l 1
 250 157.580078125 l 1
 120 0 l 1
 50 0 l 1
 215 200 l 1
 50 400 l 1
 120 400 l 1
 250 242.419921875 l 1
 380 400 l 1
EndSplineSet
Validated: 1
EndChar

StartChar: y
Encoding: 121 121 51
Width: 500
Flags: HMW
LayerCount: 2
Fore
SplineSet
400 50 m 1
 400 400 l 1
 450 400 l 1
 450 50 l 1
 450 0 l 1
 450 -150 l 1
 450 -200 l 1
 400 -200 l 1
 50 -200 l 1
 50 -150 l 1
 400 -150 l 1
 400 0 l 1
 100 0 l 1
 50 0 l 1
 50 50 l 1
 50 400 l 1
 100 400 l 1
 100 50 l 1
 400 50 l 1
EndSplineSet
Validated: 1
EndChar

StartChar: z
Encoding: 122 122 52
Width: 500
Flags: HMW
LayerCount: 2
Fore
SplineSet
450 400 m 1
 408.75 350 l 1
 161.25 50 l 1
 450 50 l 1
 450 0 l 1
 120 0 l 1
 50 0 l 1
 91.25 50 l 1
 338.75 350 l 1
 50 350 l 1
 50 400 l 1
 380 400 l 1
 450 400 l 1
EndSplineSet
Validated: 1
EndChar

StartChar: comma
Encoding: 44 44 53
Width: 225
Flags: HMW
LayerCount: 2
Fore
SplineSet
212.5 79.4697265625 m 1
 62.5 -70.5302734375 l 1
 12.5 -70.5302734375 l 1
 162.5 79.4697265625 l 1
 212.5 79.4697265625 l 1
EndSplineSet
Validated: 1
EndChar

StartChar: exclam
Encoding: 33 33 54
Width: 150
Flags: HMW
LayerCount: 2
Fore
SplineSet
50 0 m 1
 50 50 l 1
 100 50 l 1
 100 0 l 1
 50 0 l 1
50 200 m 1
 50 600 l 1
 100 600 l 1
 100 200 l 1
 50 200 l 1
EndSplineSet
Validated: 1
EndChar

StartChar: quotedbl
Encoding: 34 34 55
Width: 250
Flags: HMW
LayerCount: 2
Fore
SplineSet
150 450 m 1
 150 600 l 1
 200 600 l 1
 200 450 l 1
 150 450 l 1
50 450 m 1
 50 600 l 1
 100 600 l 1
 100 450 l 1
 50 450 l 1
EndSplineSet
Validated: 1
EndChar

StartChar: numbersign
Encoding: 35 35 56
Width: 600
Flags: HMW
LayerCount: 2
Fore
SplineSet
408.330078125 600 m 1
 408.330078125 441.669921875 l 1
 550 441.669921875 l 1
 550 391.669921875 l 1
 408.330078125 391.669921875 l 1
 408.330078125 208.330078125 l 1
 550 208.330078125 l 1
 550 158.330078125 l 1
 408.330078125 158.330078125 l 1
 408.330078125 0 l 1
 358.330078125 0 l 1
 358.330078125 158.330078125 l 1
 241.669921875 158.330078125 l 1
 241.669921875 0 l 1
 191.669921875 0 l 1
 191.669921875 158.330078125 l 1
 50 158.330078125 l 1
 50 208.330078125 l 1
 191.669921875 208.330078125 l 1
 191.669921875 391.669921875 l 1
 50 391.669921875 l 1
 50 441.669921875 l 1
 191.669921875 441.669921875 l 1
 191.669921875 600 l 1
 241.669921875 600 l 1
 241.669921875 441.669921875 l 1
 358.330078125 441.669921875 l 1
 358.330078125 600 l 1
 408.330078125 600 l 1
358.330078125 208.330078125 m 1
 358.330078125 391.669921875 l 1
 241.669921875 391.669921875 l 1
 241.669921875 208.330078125 l 1
 358.330078125 208.330078125 l 1
EndSplineSet
Validated: 1
EndChar

StartChar: dollar
Encoding: 36 36 57
Width: 500
Flags: HMW
LayerCount: 2
Fore
SplineSet
275 700 m 1
 275 600 l 1
 450 600 l 1
 450 550 l 1
 100 550 l 1
 100 325 l 1
 400 325 l 1
 450 325 l 1
 450 275 l 1
 450 50 l 1
 450 0 l 1
 400 0 l 1
 275 0 l 1
 275 -100 l 1
 225 -100 l 1
 225 0 l 1
 50 0 l 1
 50 50 l 1
 400 50 l 1
 400 275 l 1
 100 275 l 1
 50 275 l 1
 50 325 l 1
 50 550 l 1
 50 600 l 1
 100 600 l 1
 225 600 l 1
 225 700 l 1
 275 700 l 1
EndSplineSet
Validated: 1
EndChar

StartChar: percent
Encoding: 37 37 58
Width: 500
Flags: HMW
LayerCount: 2
Fore
SplineSet
87.5 512.5 m 1
 87.5 562.5 l 1
 137.5 562.5 l 1
 137.5 512.5 l 1
 87.5 512.5 l 1
362.5 37.5 m 1
 362.5 87.5 l 1
 412.5 87.5 l 1
 412.5 37.5 l 1
 362.5 37.5 l 1
50 0 m 1
 400 600 l 1
 450 600 l 1
 100 0 l 1
 50 0 l 1
EndSplineSet
Validated: 1
EndChar

StartChar: ampersand
Encoding: 38 38 59
Width: 600
Flags: HMW
LayerCount: 2
Fore
SplineSet
450 550 m 1
 450 400 l 1
 550 400 l 1
 550 350 l 1
 450 350 l 1
 450 0 l 1
 50 0 l 1
 50 600 l 1
 450 600 l 1
 450 550 l 1
100 550 m 1
 100 400 l 1
 400 400 l 1
 400 550 l 1
 100 550 l 1
400 50 m 1
 400 350 l 1
 100 350 l 1
 100 50 l 1
 400 50 l 1
EndSplineSet
Validated: 1
EndChar

StartChar: quotesingle
Encoding: 39 39 60
Width: 150
Flags: HMW
LayerCount: 2
Fore
SplineSet
50 450 m 1
 50 600 l 1
 100 600 l 1
 100 450 l 1
 50 450 l 1
EndSplineSet
Validated: 1
EndChar

StartChar: parenleft
Encoding: 40 40 61
Width: 250
Flags: HMW
LayerCount: 2
Fore
SplineSet
200 0 m 1
 150 0 l 1
 50 300 l 1
 150 600 l 1
 200 600 l 1
 100 300 l 1
 200 0 l 1
EndSplineSet
Validated: 1
EndChar

StartChar: parenright
Encoding: 41 41 62
Width: 250
Flags: HMW
LayerCount: 2
Fore
SplineSet
100 0 m 1
 50 0 l 1
 150 300 l 1
 50 600 l 1
 100 600 l 1
 200 300 l 1
 100 0 l 1
EndSplineSet
Validated: 1
EndChar

StartChar: asterisk
Encoding: 42 42 63
Width: 500
Flags: HMW
LayerCount: 2
Fore
SplineSet
450 505.650390625 m 1
 294.48046875 400 l 1
 450 294.349609375 l 1
 421.959960938 252.98046875 l 1
 275.759765625 352.290039062 l 1
 275.759765625 200 l 1
 225.759765625 200 l 1
 225.759765625 353.3203125 l 1
 78.0400390625 252.98046875 l 1
 50 294.349609375 l 1
 205.51953125 400 l 1
 50 505.650390625 l 1
 78.0400390625 547.01953125 l 1
 225.759765625 446.6796875 l 1
 225.759765625 600 l 1
 275.759765625 600 l 1
 275.759765625 447.709960938 l 1
 421.959960938 547.01953125 l 1
 450 505.650390625 l 1
EndSplineSet
Validated: 1
EndChar

StartChar: plus
Encoding: 43 43 64
Width: 400
Flags: HMW
LayerCount: 2
Fore
SplineSet
175 100 m 1
 175 225 l 1
 50 225 l 1
 50 275 l 1
 175 275 l 1
 175 400 l 1
 225 400 l 1
 225 275 l 1
 350 275 l 1
 350 225 l 1
 225 225 l 1
 225 100 l 1
 175 100 l 1
EndSplineSet
Validated: 1
EndChar

StartChar: hyphen
Encoding: 45 45 65
Width: 400
Flags: HMW
LayerCount: 2
Fore
SplineSet
50 225 m 1
 50 275 l 1
 350 275 l 1
 350 225 l 1
 50 225 l 1
EndSplineSet
Validated: 1
EndChar

StartChar: period
Encoding: 46 46 66
Width: 150
Flags: HMW
LayerCount: 2
Fore
SplineSet
50 0 m 1
 50 50 l 1
 100 50 l 1
 100 0 l 1
 50 0 l 1
EndSplineSet
Validated: 1
EndChar

StartChar: slash
Encoding: 47 47 67
Width: 350
Flags: HMW
LayerCount: 2
Fore
SplineSet
50 0 m 1
 250 600 l 1
 300 600 l 1
 100 0 l 1
 50 0 l 1
EndSplineSet
Validated: 1
EndChar

StartChar: colon
Encoding: 58 58 68
Width: 150
Flags: HMW
LayerCount: 2
Fore
SplineSet
50 350 m 1
 50 400 l 1
 100 400 l 1
 100 350 l 1
 50 350 l 1
50 0 m 1
 50 50 l 1
 100 50 l 1
 100 0 l 1
 50 0 l 1
EndSplineSet
Validated: 1
EndChar

StartChar: semicolon
Encoding: 59 59 69
Width: 250
Flags: HMW
LayerCount: 2
Fore
SplineSet
175 337.5 m 1
 175 387.5 l 1
 225 387.5 l 1
 225 337.5 l 1
 175 337.5 l 1
225 75 m 1
 75 -75 l 1
 25 -75 l 1
 175 75 l 1
 225 75 l 1
EndSplineSet
Validated: 1
EndChar

StartChar: less
Encoding: 60 60 70
Width: 350
Flags: HMW
LayerCount: 2
Fore
SplineSet
250 400 m 1
 300 400 l 1
 100 200 l 1
 300 0 l 1
 250 0 l 1
 50 200 l 1
 250 400 l 1
EndSplineSet
Validated: 1
EndChar

StartChar: equal
Encoding: 61 61 71
Width: 400
Flags: HMW
LayerCount: 2
Fore
SplineSet
50 350 m 1
 50 400 l 1
 350 400 l 1
 350 350 l 1
 50 350 l 1
50 162.5 m 1
 50 212.5 l 1
 350 212.5 l 1
 350 162.5 l 1
 50 162.5 l 1
EndSplineSet
Validated: 1
EndChar

StartChar: greater
Encoding: 62 62 72
Width: 350
Flags: HMW
LayerCount: 2
Fore
SplineSet
50 400 m 1
 100 400 l 1
 300 200 l 1
 100 0 l 1
 50 0 l 1
 250 200 l 1
 50 400 l 1
EndSplineSet
Validated: 1
EndChar

StartChar: question
Encoding: 63 63 73
Width: 500
Flags: HMW
LayerCount: 2
Fore
SplineSet
100 600 m 1
 400 600 l 1
 450 600 l 1
 450 550 l 1
 450 400 l 1
 450 350 l 1
 400 350 l 1
 275 350 l 1
 275 200 l 1
 225 200 l 1
 225 350 l 1
 225 400 l 1
 275 400 l 1
 400 400 l 1
 400 550 l 1
 100 550 l 1
 100 400 l 1
 50 400 l 1
 50 550 l 1
 50 600 l 1
 100 600 l 1
225 0 m 1
 225 50 l 1
 275 50 l 1
 275 0 l 1
 225 0 l 1
EndSplineSet
Validated: 1
EndChar

StartChar: at
Encoding: 64 64 74
Width: 500
Flags: HMW
LayerCount: 2
Fore
SplineSet
100 400 m 1
 450 400 l 1
 450 120.830078125 l 1
 158.330078125 120.830078125 l 1
 158.330078125 279.169921875 l 1
 400 279.169921875 l 1
 400 350 l 1
 100 350 l 1
 100 50 l 1
 450 50 l 1
 450 0 l 1
 50 0 l 1
 50 400 l 1
 100 400 l 1
400 170.830078125 m 1
 400 229.169921875 l 1
 208.330078125 229.169921875 l 1
 208.330078125 170.830078125 l 1
 400 170.830078125 l 1
EndSplineSet
Validated: 1
EndChar

StartChar: bracketleft
Encoding: 91 91 75
Width: 300
Flags: HMW
LayerCount: 2
Fore
SplineSet
50 600 m 1
 100 600 l 1
 250 600 l 1
 250 550 l 1
 100 550 l 1
 100 50 l 1
 250 50 l 1
 250 0 l 1
 100 0 l 1
 50 0 l 1
 50 50 l 1
 50 550 l 1
 50 600 l 1
EndSplineSet
Validated: 1
EndChar

StartChar: backslash
Encoding: 92 92 76
Width: 350
Flags: HMW
LayerCount: 2
Fore
SplineSet
50 600 m 1
 100 600 l 1
 300 0 l 1
 250 0 l 1
 50 600 l 1
EndSplineSet
Validated: 1
EndChar

StartChar: bracketright
Encoding: 93 93 77
Width: 300
Flags: HMW
LayerCount: 2
Fore
SplineSet
50 600 m 1
 200 600 l 1
 250 600 l 1
 250 550 l 1
 250 50 l 1
 250 0 l 1
 200 0 l 1
 50 0 l 1
 50 50 l 1
 200 50 l 1
 200 550 l 1
 50 550 l 1
 50 600 l 1
EndSplineSet
Validated: 1
EndChar

StartChar: asciicircum
Encoding: 94 94 78
Width: 400
Flags: HMW
LayerCount: 2
Fore
SplineSet
50 475 m 1
 200 600 l 1
 350 475 l 1
 350 425 l 1
 200 550 l 1
 50 425 l 1
 50 475 l 1
EndSplineSet
Validated: 1
EndChar

StartChar: underscore
Encoding: 95 95 79
Width: 500
Flags: HMW
LayerCount: 2
Fore
SplineSet
50 0 m 1
 50 50 l 1
 450 50 l 1
 450 0 l 1
 50 0 l 1
EndSplineSet
Validated: 1
EndChar

StartChar: grave
Encoding: 96 96 80
Width: 300
Flags: HMW
LayerCount: 2
Fore
SplineSet
50 600 m 1
 100 600 l 1
 250 450 l 1
 200 450 l 1
 50 600 l 1
EndSplineSet
Validated: 1
EndChar

StartChar: braceleft
Encoding: 123 123 81
Width: 400
Flags: HMW
LayerCount: 2
Fore
SplineSet
175 600 m 1
 225 600 l 1
 362.5 600 l 1
 362.5 550 l 1
 225 550 l 1
 225 325 l 1
 225 275 l 1
 225 50 l 1
 362.5 50 l 1
 362.5 0 l 1
 225 0 l 1
 175 0 l 1
 175 50 l 1
 175 275 l 1
 37.5 275 l 1
 37.5 325 l 1
 175 325 l 1
 175 550 l 1
 175 600 l 1
EndSplineSet
Validated: 1
EndChar

StartChar: bar
Encoding: 124 124 82
Width: 150
Flags: HMW
LayerCount: 2
Fore
SplineSet
50 -100 m 1
 50 600 l 1
 100 600 l 1
 100 -100 l 1
 50 -100 l 1
EndSplineSet
Validated: 1
EndChar

StartChar: braceright
Encoding: 125 125 83
Width: 400
Flags: HMW
LayerCount: 2
Fore
SplineSet
225 550 m 1
 225 325 l 1
 362.5 325 l 1
 362.5 275 l 1
 225 275 l 1
 225 50 l 1
 225 0 l 1
 175 0 l 1
 37.5 0 l 1
 37.5 50 l 1
 175 50 l 1
 175 275 l 1
 175 325 l 1
 175 550 l 1
 37.5 550 l 1
 37.5 600 l 1
 175 600 l 1
 225 600 l 1
 225 550 l 1
EndSplineSet
Validated: 1
EndChar

StartChar: asciitilde
Encoding: 126 126 84
Width: 500
Flags: HMW
LayerCount: 2
Fore
SplineSet
100 275 m 1
 400 275 l 1
 450 275 l 1
 450 225 l 1
 450 100 l 1
 400 100 l 1
 400 225 l 1
 100 225 l 1
 50 225 l 1
 50 275 l 1
 50 400 l 1
 100 400 l 1
 100 275 l 1
EndSplineSet
Validated: 1
EndChar

StartChar: zero
Encoding: 48 48 85
Width: 500
Flags: HMW
LayerCount: 2
Fore
SplineSet
100 599.5 m 1
 450 599.5 l 1
 450 -0.5 l 1
 50 -0.5 l 1
 50 599.5 l 1
 100 599.5 l 1
400 49.5 m 1
 400 549.5 l 1
 100 549.5 l 1
 100 49.5 l 1
 400 49.5 l 1
EndSplineSet
Validated: 1
EndChar

StartChar: one
Encoding: 49 49 86
Width: 300
Flags: HMW
LayerCount: 2
Fore
SplineSet
200 -0.5 m 1
 200 549.5 l 1
 50 549.5 l 1
 50 599.5 l 1
 200 599.5 l 1
 250 599.5 l 1
 250 549.5 l 1
 250 -0.5 l 1
 200 -0.5 l 1
EndSplineSet
Validated: 1
EndChar

StartChar: two
Encoding: 50 50 87
Width: 500
Flags: HMW
LayerCount: 2
Fore
SplineSet
50 599.5 m 1
 400 599.5 l 1
 450 599.5 l 1
 450 549.5 l 1
 450 399.5 l 1
 450 349.5 l 1
 400 349.5 l 1
 100 349.5 l 1
 100 49.5 l 1
 450 49.5 l 1
 450 -0.5 l 1
 100 -0.5 l 1
 50 -0.5 l 1
 50 49.5 l 1
 50 349.5 l 1
 50 399.5 l 1
 100 399.5 l 1
 400 399.5 l 1
 400 549.5 l 1
 50 549.5 l 1
 50 599.5 l 1
EndSplineSet
Validated: 1
EndChar

StartChar: three
Encoding: 51 51 88
Width: 500
Flags: HMW
LayerCount: 2
Fore
SplineSet
450 -0.5 m 1
 400 -0.5 l 1
 50 -0.5 l 1
 50 49.5 l 1
 400 49.5 l 1
 400 349.5 l 1
 50 349.5 l 1
 50 399.5 l 1
 400 399.5 l 1
 400 549.5 l 1
 50 549.5 l 1
 50 599.5 l 1
 400 599.5 l 1
 450 599.5 l 1
 450 549.5 l 1
 450 399.5 l 1
 450 349.5 l 1
 450 49.5 l 1
 450 -0.5 l 1
EndSplineSet
Validated: 1
EndChar

StartChar: four
Encoding: 52 52 89
Width: 500
Flags: HMW
LayerCount: 2
Fore
SplineSet
400 349.5 m 1
 100 349.5 l 1
 50 349.5 l 1
 50 399.5 l 1
 50 599.5 l 1
 100 599.5 l 1
 100 399.5 l 1
 400 399.5 l 1
 400 599.5 l 1
 450 599.5 l 1
 450 399.5 l 1
 450 349.5 l 1
 450 -0.5 l 1
 400 -0.5 l 1
 400 349.5 l 1
EndSplineSet
Validated: 1
EndChar

StartChar: five
Encoding: 53 53 90
Width: 500
Flags: HMW
LayerCount: 2
Fore
SplineSet
50 599.5 m 1
 100 599.5 l 1
 450 599.5 l 1
 450 549.5 l 1
 100 549.5 l 1
 100 399.5 l 1
 400 399.5 l 1
 450 399.5 l 1
 450 349.5 l 1
 450 49.5 l 1
 450 -0.5 l 1
 400 -0.5 l 1
 100 -0.5 l 1
 50 -0.5 l 1
 50 49.5 l 1
 50 149.5 l 1
 100 149.5 l 1
 100 49.5 l 1
 400 49.5 l 1
 400 349.5 l 1
 100 349.5 l 1
 50 349.5 l 1
 50 399.5 l 1
 50 549.5 l 1
 50 599.5 l 1
EndSplineSet
Validated: 1
EndChar

StartChar: six
Encoding: 54 54 91
Width: 500
Flags: HMW
LayerCount: 2
Fore
SplineSet
50 599.5 m 1
 450 599.5 l 1
 450 549.5 l 1
 100 549.5 l 1
 100 399.5 l 1
 450 399.5 l 1
 450 -0.5 l 1
 50 -0.5 l 1
 50 599.5 l 1
400 349.5 m 1
 100 349.5 l 1
 100 49.5 l 1
 400 49.5 l 1
 400 349.5 l 1
EndSplineSet
Validated: 1
EndChar

StartChar: seven
Encoding: 55 55 92
Width: 500
Flags: HMW
LayerCount: 2
Fore
SplineSet
50 599.5 m 1
 400 599.5 l 1
 450 599.5 l 1
 450 549.5 l 1
 450 -0.5 l 1
 400 -0.5 l 1
 400 549.5 l 1
 50 549.5 l 1
 50 599.5 l 1
EndSplineSet
Validated: 1
EndChar

StartChar: eight
Encoding: 56 56 93
Width: 500
Flags: HMW
LayerCount: 2
Fore
SplineSet
100 599.5 m 1
 450 599.5 l 1
 450 -0.5 l 1
 50 -0.5 l 1
 50 599.5 l 1
 100 599.5 l 1
400 49.5 m 1
 400 349.5 l 1
 100 349.5 l 1
 100 49.5 l 1
 400 49.5 l 1
400 399.5 m 1
 400 549.5 l 1
 100 549.5 l 1
 100 399.5 l 1
 400 399.5 l 1
EndSplineSet
Validated: 1
EndChar

StartChar: nine
Encoding: 57 57 94
Width: 500
Flags: HMW
LayerCount: 2
Fore
SplineSet
400 599.5 m 1
 450 599.5 l 1
 450 -0.5 l 1
 50 -0.5 l 1
 50 49.5 l 1
 400 49.5 l 1
 400 349.5 l 1
 50 349.5 l 1
 50 599.5 l 1
 400 599.5 l 1
400 399.5 m 1
 400 549.5 l 1
 100 549.5 l 1
 100 399.5 l 1
 400 399.5 l 1
EndSplineSet
Validated: 1
EndChar

StartChar: exclamdown
Encoding: 161 161 95
Width: 150
Flags: HMW
LayerCount: 2
Fore
SplineSet
62.5 -200 m 1
 62.5 200 l 1
 112.5 200 l 1
 112.5 -200 l 1
 62.5 -200 l 1
62.5 350 m 1
 62.5 400 l 1
 112.5 400 l 1
 112.5 350 l 1
 62.5 350 l 1
EndSplineSet
Validated: 1
EndChar

StartChar: cent
Encoding: 162 162 96
Width: 500
Flags: HMW
LayerCount: 2
Fore
SplineSet
275 500 m 1
 275 400 l 1
 450 400 l 1
 450 350 l 1
 275 350 l 1
 275 50 l 1
 450 50 l 1
 450 0 l 1
 275 0 l 1
 275 -100 l 1
 225 -100 l 1
 225 0 l 1
 50 0 l 1
 50 400 l 1
 225 400 l 1
 225 500 l 1
 275 500 l 1
225 50 m 1
 225 350 l 1
 100 350 l 1
 100 50 l 1
 225 50 l 1
EndSplineSet
Validated: 1
EndChar

StartChar: sterling
Encoding: 163 163 97
Width: 500
Flags: HMW
LayerCount: 2
Fore
SplineSet
200 600 m 1
 400 600 l 1
 450 600 l 1
 450 550 l 1
 450 450 l 1
 400 450 l 1
 400 550 l 1
 200 550 l 1
 200 400 l 1
 400 400 l 1
 400 350 l 1
 200 350 l 1
 100 75 l 1
 100 50 l 1
 400 50 l 1
 400 200 l 1
 450 200 l 1
 450 50 l 1
 450 0 l 1
 400 0 l 1
 100 0 l 1
 50 0 l 1
 50 50 l 1
 50 75 l 1
 150 350 l 1
 50 350 l 1
 50 400 l 1
 150 400 l 1
 150 550 l 1
 150 600 l 1
 200 600 l 1
EndSplineSet
Validated: 1
EndChar

StartChar: currency
Encoding: 164 164 98
Width: 500
Flags: HMW
LayerCount: 2
Fore
SplineSet
409.48046875 162.719726562 m 1
 367 120.259765625 l 1
 449.509765625 37.7900390625 l 1
 412.23046875 0.51953125 l 1
 329.740234375 83 l 1
 287.280273438 40.51953125 l 1
 250 3.240234375 l 1
 170.280273438 83 l 1
 87.2802734375 0 l 1
 50 37.259765625 l 1
 133 120.259765625 l 1
 90.51953125 162.719726562 l 1
 53.240234375 200 l 1
 133 279.740234375 l 1
 50.5 362.23046875 l 1
 87.76953125 399.490234375 l 1
 170.259765625 317 l 1
 250 396.759765625 l 1
 287.280273438 359.459960938 l 1
 329.740234375 317 l 1
 351.309570312 338.58984375 l 1
 390.66015625 377.940429688 l 1
 412.719726562 400 l 1
 450 362.740234375 l 1
 367 279.740234375 l 1
 409.48046875 237.280273438 l 1
 446.759765625 200 l 1
 409.48046875 162.719726562 l 1
250 77.7998046875 m 1
 372.200195312 200 l 1
 250 322.200195312 l 1
 127.799804688 200 l 1
 250 77.7998046875 l 1
EndSplineSet
Validated: 1
EndChar

StartChar: yen
Encoding: 165 165 99
Width: 500
Flags: HMW
LayerCount: 2
Fore
SplineSet
400 600 m 1
 450 600 l 1
 310 400 l 1
 450 400 l 1
 450 350 l 1
 275 350 l 1
 275 250 l 1
 450 250 l 1
 450 200 l 1
 275 200 l 1
 275 0 l 1
 225 0 l 1
 225 200 l 1
 50 200 l 1
 50 250 l 1
 225 250 l 1
 225 350 l 1
 50 350 l 1
 50 400 l 1
 190 400 l 1
 50 600 l 1
 100 600 l 1
 240 400 l 1
 260 400 l 1
 400 600 l 1
EndSplineSet
Validated: 1
EndChar

StartChar: brokenbar
Encoding: 166 166 100
Width: 150
Flags: HMW
LayerCount: 2
Fore
SplineSet
62.5 -100 m 1
 62.5 200 l 1
 112.5 200 l 1
 112.5 -100 l 1
 62.5 -100 l 1
62.5 300 m 1
 62.5 600 l 1
 112.5 600 l 1
 112.5 300 l 1
 62.5 300 l 1
EndSplineSet
Validated: 1
EndChar

StartChar: section
Encoding: 167 167 101
Width: 500
Flags: HMW
LayerCount: 2
Fore
SplineSet
50 600 m 1
 450 600 l 1
 450 550 l 1
 100 550 l 1
 100 350 l 1
 450 350 l 1
 450 -200 l 1
 50 -200 l 1
 50 -150 l 1
 400 -150 l 1
 400 50 l 1
 50 50 l 1
 50 600 l 1
400 300 m 1
 100 300 l 1
 100 100 l 1
 400 100 l 1
 400 300 l 1
EndSplineSet
Validated: 1
EndChar

StartChar: dieresis
Encoding: 168 168 102
Width: 400
Flags: HMW
LayerCount: 2
Fore
SplineSet
50 550 m 1
 50 600 l 1
 100 600 l 1
 100 550 l 1
 50 550 l 1
300 550 m 1
 300 600 l 1
 350 600 l 1
 350 550 l 1
 300 550 l 1
EndSplineSet
Validated: 1
EndChar

StartChar: copyright
Encoding: 169 169 103
Width: 500
Flags: HMW
LayerCount: 2
Fore
SplineSet
75 500 m 1
 450 500 l 1
 450 99.580078125 l 1
 50 99.580078125 l 1
 50 500 l 1
 75 500 l 1
425 124.580078125 m 1
 425 475 l 1
 75 475 l 1
 75 124.580078125 l 1
 425 124.580078125 l 1
191.669921875 216.669921875 m 1
 166.669921875 216.669921875 l 1
 166.669921875 241.669921875 l 1
 166.669921875 358.330078125 l 1
 166.669921875 383.330078125 l 1
 191.669921875 383.330078125 l 1
 333.330078125 383.330078125 l 1
 333.330078125 358.330078125 l 1
 191.669921875 358.330078125 l 1
 191.669921875 241.669921875 l 1
 333.330078125 241.669921875 l 1
 333.330078125 216.669921875 l 1
 191.669921875 216.669921875 l 1
EndSplineSet
Validated: 1
EndChar

StartChar: ordfeminine
Encoding: 170 170 104
Width: 300
Flags: HMW
LayerCount: 2
Fore
SplineSet
225 400 m 1
 50 400 l 1
 50 525 l 1
 225 525 l 1
 225 575 l 1
 50 575 l 1
 50 600 l 1
 250 600 l 1
 250 400 l 1
 225 400 l 1
75 500 m 1
 75 425 l 1
 225 425 l 1
 225 500 l 1
 75 500 l 1
EndSplineSet
Validated: 1
EndChar

StartChar: guillemotleft
Encoding: 171 171 105
Width: 500
Flags: HMW
LayerCount: 2
Fore
SplineSet
262.5 0 m 1
 212.5 0 l 1
 50 200 l 1
 212.5 400 l 1
 262.5 400 l 1
 100 200 l 1
 262.5 0 l 1
400 0 m 1
 237.5 200 l 1
 400 400 l 1
 450 400 l 1
 287.5 200 l 1
 450 0 l 1
 400 0 l 1
EndSplineSet
Validated: 1
EndChar

StartChar: logicalnot
Encoding: 172 172 106
Width: 500
Flags: HMW
LayerCount: 2
Fore
SplineSet
50 300 m 1
 400 300 l 1
 450 300 l 1
 450 250 l 1
 450 100 l 1
 400 100 l 1
 400 250 l 1
 50 250 l 1
 50 300 l 1
EndSplineSet
Validated: 1
EndChar

StartChar: uni00AD
Encoding: 173 173 107
Width: 400
Flags: HMW
LayerCount: 2
Fore
SplineSet
50 175 m 1
 50 225 l 1
 350 225 l 1
 350 175 l 1
 50 175 l 1
EndSplineSet
Validated: 1
EndChar

StartChar: registered
Encoding: 174 174 108
Width: 400
Flags: HMW
LayerCount: 2
Fore
SplineSet
75 600 m 1
 350 600 l 1
 350 300 l 1
 50 300 l 1
 50 600 l 1
 75 600 l 1
325 325 m 1
 325 575 l 1
 75 575 l 1
 75 325 l 1
 325 325 l 1
131.719726562 508.330078125 m 1
 131.25 508.330078125 l 1
 131.25 533.330078125 l 1
 243.719726562 533.330078125 l 1
 243.719726562 437.5 l 1
 268.719726562 437.5 l 1
 268.719726562 366.669921875 l 1
 243.719726562 366.669921875 l 1
 243.719726562 412.5 l 1
 156.719726562 412.5 l 1
 156.719726562 366.669921875 l 1
 131.719726562 366.669921875 l 1
 131.719726562 508.330078125 l 1
218.719726562 508.330078125 m 1
 156.719726562 508.330078125 l 1
 156.719726562 437.5 l 1
 218.719726562 437.5 l 1
 218.719726562 508.330078125 l 1
EndSplineSet
Validated: 1
EndChar

StartChar: macron
Encoding: 175 175 109
Width: 500
Flags: HMW
LayerCount: 2
Fore
SplineSet
50 550 m 1
 50 600 l 1
 450 600 l 1
 450 550 l 1
 50 550 l 1
EndSplineSet
Validated: 1
EndChar

StartChar: degree
Encoding: 176 176 110
Width: 300
Flags: HMW
LayerCount: 2
Fore
SplineSet
75 600 m 1
 250 600 l 1
 250 400 l 1
 50 400 l 1
 50 600 l 1
 75 600 l 1
225 425 m 1
 225 575 l 1
 75 575 l 1
 75 425 l 1
 225 425 l 1
EndSplineSet
Validated: 1
EndChar

StartChar: plusminus
Encoding: 177 177 111
Width: 400
Flags: HMW
LayerCount: 2
Fore
SplineSet
50 0 m 1
 50 50 l 1
 350 50 l 1
 350 0 l 1
 50 0 l 1
175 400 m 1
 225 400 l 1
 225 275 l 1
 350 275 l 1
 350 225 l 1
 225 225 l 1
 225 100 l 1
 175 100 l 1
 175 225 l 1
 50 225 l 1
 50 275 l 1
 175 275 l 1
 175 400 l 1
EndSplineSet
Validated: 1
EndChar

StartChar: uni00B2
Encoding: 178 178 112
Width: 250
Flags: HMW
LayerCount: 2
Fore
SplineSet
200 400 m 1
 75 400 l 1
 50 400 l 1
 50 425 l 1
 50 487.5 l 1
 50 512.5 l 1
 75 512.5 l 1
 175 512.5 l 1
 175 575 l 1
 50 575 l 1
 50 600 l 1
 175 600 l 1
 200 600 l 1
 200 575 l 1
 200 512.5 l 1
 200 487.5 l 1
 175 487.5 l 1
 75 487.5 l 1
 75 425 l 1
 200 425 l 1
 200 400 l 1
EndSplineSet
Validated: 1
EndChar

StartChar: uni00B3
Encoding: 179 179 113
Width: 250
Flags: HMW
LayerCount: 2
Fore
SplineSet
50 600 m 1
 175 600 l 1
 200 600 l 1
 200 575 l 1
 200 512.5 l 1
 200 487.5 l 1
 200 425 l 1
 200 400 l 1
 175 400 l 1
 50 400 l 1
 50 425 l 1
 175 425 l 1
 175 487.5 l 1
 50 487.5 l 1
 50 512.5 l 1
 175 512.5 l 1
 175 575 l 1
 50 575 l 1
 50 600 l 1
EndSplineSet
Validated: 1
EndChar

StartChar: acute
Encoding: 180 180 114
Width: 300
Flags: HMW
LayerCount: 2
Fore
SplineSet
250 600 m 1
 100 450 l 1
 50 450 l 1
 200 600 l 1
 250 600 l 1
EndSplineSet
Validated: 1
EndChar

StartChar: mu
Encoding: 181 181 115
Width: 600
Flags: HMW
LayerCount: 2
Fore
SplineSet
450 400 m 1
 450 50 l 1
 550 50 l 1
 550 0 l 1
 450 0 l 1
 400 0 l 1
 100 0 l 1
 100 -100 l 1
 50 -100 l 1
 50 0 l 1
 50 50 l 1
 50 400 l 1
 100 400 l 1
 100 50 l 1
 400 50 l 1
 400 400 l 1
 450 400 l 1
EndSplineSet
Validated: 1
EndChar

StartChar: paragraph
Encoding: 182 182 116
Width: 500
Flags: HMW
LayerCount: 2
Fore
SplineSet
362.5 600 m 1
 387.5 600 l 1
 450 600 l 1
 450 575 l 1
 387.5 575 l 1
 387.5 -100 l 1
 362.5 -100 l 1
 362.5 575 l 1
 295 575 l 1
 295 300 l 1
 295 -100 l 1
 270 -100 l 1
 270 300 l 1
 50 300 l 1
 50 575 l 1
 50 600 l 1
 270 600 l 1
 295 600 l 1
 362.5 600 l 1
EndSplineSet
Validated: 1
EndChar

StartChar: periodcentered
Encoding: 183 183 117
Width: 150
Flags: HMW
LayerCount: 2
Fore
SplineSet
62.5 350 m 1
 62.5 400 l 1
 112.5 400 l 1
 112.5 350 l 1
 62.5 350 l 1
EndSplineSet
Validated: 1
EndChar

StartChar: cedilla
Encoding: 184 184 118
Width: 150
Flags: HMW
LayerCount: 2
Fore
SplineSet
62.5 -100 m 1
 62.5 0 l 1
 112.5 0 l 1
 112.5 -100 l 1
 62.5 -100 l 1
EndSplineSet
Validated: 1
EndChar

StartChar: uni00B9
Encoding: 185 185 119
Width: 200
Flags: HMW
LayerCount: 2
Fore
SplineSet
50 600 m 1
 125 600 l 1
 150 600 l 1
 150 575 l 1
 150 400 l 1
 125 400 l 1
 125 575 l 1
 50 575 l 1
 50 600 l 1
EndSplineSet
Validated: 1
EndChar

StartChar: ordmasculine
Encoding: 186 186 120
Width: 250
Flags: HMW
LayerCount: 2
Fore
SplineSet
75 600 m 1
 200 600 l 1
 200 400 l 1
 50 400 l 1
 50 600 l 1
 75 600 l 1
175 425 m 1
 175 575 l 1
 75 575 l 1
 75 425 l 1
 175 425 l 1
EndSplineSet
Validated: 1
EndChar

StartChar: guillemotright
Encoding: 187 187 121
Width: 500
Flags: HMW
LayerCount: 2
Fore
SplineSet
237.5 400 m 1
 287.5 400 l 1
 450 200 l 1
 287.5 0 l 1
 237.5 0 l 1
 400 200 l 1
 237.5 400 l 1
100 0 m 1
 50 0 l 1
 212.5 200 l 1
 50 400 l 1
 100 400 l 1
 262.5 200 l 1
 100 0 l 1
EndSplineSet
Validated: 1
EndChar

StartChar: onequarter
Encoding: 188 188 122
Width: 500
Flags: HMW
LayerCount: 2
Fore
SplineSet
126.049804688 400 m 1
 126.049804688 575 l 1
 51.0498046875 575 l 1
 51.0498046875 600 l 1
 126.049804688 600 l 1
 151.049804688 600 l 1
 151.049804688 575 l 1
 151.049804688 400 l 1
 126.049804688 400 l 1
448.940429688 0 m 1
 423.940429688 0 l 1
 423.940429688 87.5 l 1
 323.940429688 87.5 l 1
 298.940429688 87.5 l 1
 298.940429688 112.5 l 1
 298.940429688 200 l 1
 323.940429688 200 l 1
 323.940429688 112.5 l 1
 423.940429688 112.5 l 1
 423.940429688 200 l 1
 448.940429688 200 l 1
 448.940429688 112.5 l 1
 448.940429688 87.5 l 1
 448.940429688 0 l 1
450 600 m 1
 74.9501953125 0 l 1
 50 0 l 1
 425.049804688 600 l 1
 450 600 l 1
EndSplineSet
Validated: 1
EndChar

StartChar: onehalf
Encoding: 189 189 123
Width: 500
Flags: HMW
LayerCount: 2
Fore
SplineSet
125 400 m 1
 125 575 l 1
 50 575 l 1
 50 600 l 1
 125 600 l 1
 150 600 l 1
 150 575 l 1
 150 400 l 1
 125 400 l 1
425.049804688 600 m 1
 450 600 l 1
 74.9501953125 0 l 1
 50 0 l 1
 425.049804688 600 l 1
300 200 m 1
 425 200 l 1
 450 200 l 1
 450 175 l 1
 450 112.5 l 1
 450 87.5 l 1
 425 87.5 l 1
 325 87.5 l 1
 325 25 l 1
 450 25 l 1
 450 0 l 1
 325 0 l 1
 300 0 l 1
 300 25 l 1
 300 87.5 l 1
 300 112.5 l 1
 325 112.5 l 1
 425 112.5 l 1
 425 175 l 1
 300 175 l 1
 300 200 l 1
EndSplineSet
Validated: 1
EndChar

StartChar: threequarters
Encoding: 190 190 124
Width: 500
Flags: HMW
LayerCount: 2
Fore
SplineSet
450 0 m 1
 425 0 l 1
 425 87.5 l 1
 325 87.5 l 1
 300 87.5 l 1
 300 112.5 l 1
 300 200 l 1
 325 200 l 1
 325 112.5 l 1
 425 112.5 l 1
 425 200 l 1
 450 200 l 1
 450 112.5 l 1
 450 87.5 l 1
 450 0 l 1
450 600 m 1
 74.9501953125 0 l 1
 50 0 l 1
 425.049804688 600 l 1
 450 600 l 1
200 400 m 1
 175 400 l 1
 50 400 l 1
 50 425 l 1
 175 425 l 1
 175 487.5 l 1
 50 487.5 l 1
 50 512.5 l 1
 175 512.5 l 1
 175 575 l 1
 50 575 l 1
 50 600 l 1
 175 600 l 1
 200 600 l 1
 200 575 l 1
 200 512.5 l 1
 200 487.5 l 1
 200 425 l 1
 200 400 l 1
EndSplineSet
Validated: 1
EndChar

StartChar: questiondown
Encoding: 191 191 125
Width: 500
Flags: HMW
LayerCount: 2
Fore
SplineSet
225 350 m 1
 225 400 l 1
 275 400 l 1
 275 350 l 1
 225 350 l 1
400 -150 m 1
 400 0 l 1
 450 0 l 1
 450 -150 l 1
 450 -200 l 1
 400 -200 l 1
 100 -200 l 1
 50 -200 l 1
 50 -150 l 1
 50 0 l 1
 50 50 l 1
 100 50 l 1
 225 50 l 1
 225 200 l 1
 275 200 l 1
 275 50 l 1
 275 0 l 1
 225 0 l 1
 100 0 l 1
 100 -150 l 1
 400 -150 l 1
EndSplineSet
Validated: 1
EndChar

StartChar: Agrave
Encoding: 192 192 126
Width: 500
Flags: HMW
LayerCount: 2
Fore
SplineSet
225 800 m 1
 300 650 l 1
 275 650 l 1
 200 800 l 1
 225 800 l 1
100 600 m 1
 450 600 l 1
 450 0 l 1
 400 0 l 1
 400 350 l 1
 100 350 l 1
 100 0 l 1
 50 0 l 1
 50 600 l 1
 100 600 l 1
400 400 m 1
 400 550 l 1
 100 550 l 1
 100 400 l 1
 400 400 l 1
EndSplineSet
Validated: 1
EndChar

StartChar: Aacute
Encoding: 193 193 127
Width: 500
Flags: HMW
LayerCount: 2
Fore
SplineSet
225 650 m 1
 200 650 l 1
 275 800 l 1
 300 800 l 1
 225 650 l 1
100 600 m 1
 450 600 l 1
 450 0 l 1
 400 0 l 1
 400 350 l 1
 100 350 l 1
 100 0 l 1
 50 0 l 1
 50 600 l 1
 100 600 l 1
400 400 m 1
 400 550 l 1
 100 550 l 1
 100 400 l 1
 400 400 l 1
EndSplineSet
Validated: 1
EndChar

StartChar: Acircumflex
Encoding: 194 194 128
Width: 500
Flags: HMW
LayerCount: 2
Fore
SplineSet
100 600 m 1
 450 600 l 1
 450 0 l 1
 400 0 l 1
 400 350 l 1
 100 350 l 1
 100 0 l 1
 50 0 l 1
 50 600 l 1
 100 600 l 1
400 400 m 1
 400 550 l 1
 100 550 l 1
 100 400 l 1
 400 400 l 1
100 650 m 1
 100 675 l 1
 250 800 l 1
 400 675 l 1
 400 650 l 1
 250 775 l 1
 100 650 l 1
EndSplineSet
Validated: 1
EndChar

StartChar: Atilde
Encoding: 195 195 129
Width: 500
Flags: HMW
LayerCount: 2
Fore
SplineSet
75 737.5 m 1
 425 737.5 l 1
 450 737.5 l 1
 450 712.5 l 1
 450 650 l 1
 425 650 l 1
 425 712.5 l 1
 75 712.5 l 1
 50 712.5 l 1
 50 737.5 l 1
 50 800 l 1
 75 800 l 1
 75 737.5 l 1
100 600 m 1
 450 600 l 1
 450 0 l 1
 400 0 l 1
 400 350 l 1
 100 350 l 1
 100 0 l 1
 50 0 l 1
 50 600 l 1
 100 600 l 1
400 400 m 1
 400 550 l 1
 100 550 l 1
 100 400 l 1
 400 400 l 1
EndSplineSet
Validated: 1
EndChar

StartChar: Adieresis
Encoding: 196 196 130
Width: 500
Flags: HMW
LayerCount: 2
Fore
SplineSet
100 600 m 1
 450 600 l 1
 450 0 l 1
 400 0 l 1
 400 350 l 1
 100 350 l 1
 100 0 l 1
 50 0 l 1
 50 600 l 1
 100 600 l 1
400 400 m 1
 400 550 l 1
 100 550 l 1
 100 400 l 1
 400 400 l 1
160 650 m 1
 160 675 l 1
 185 675 l 1
 185 650 l 1
 160 650 l 1
315 650 m 1
 315 675 l 1
 340 675 l 1
 340 650 l 1
 315 650 l 1
EndSplineSet
Validated: 1
EndChar

StartChar: Aring
Encoding: 197 197 131
Width: 500
Flags: HMW
LayerCount: 2
Fore
SplineSet
175 675 m 1
 175 800 l 1
 325 800 l 1
 325 650 l 1
 175 650 l 1
 175 675 l 1
300 775 m 1
 200 775 l 1
 200 675 l 1
 300 675 l 1
 300 775 l 1
100 600 m 1
 450 600 l 1
 450 0 l 1
 400 0 l 1
 400 350 l 1
 100 350 l 1
 100 0 l 1
 50 0 l 1
 50 600 l 1
 100 600 l 1
400 400 m 1
 400 550 l 1
 100 550 l 1
 100 400 l 1
 400 400 l 1
EndSplineSet
Validated: 1
EndChar

StartChar: AE
Encoding: 198 198 132
Width: 800
Flags: HMW
LayerCount: 2
Fore
SplineSet
400 600 m 1
 750 600 l 1
 750 550 l 1
 450 550 l 1
 450 400 l 1
 750 400 l 1
 750 350 l 1
 450 350 l 1
 450 50 l 1
 750 50 l 1
 750 0 l 1
 400 0 l 1
 400 350 l 1
 100 350 l 1
 100 0 l 1
 50 0 l 1
 50 600 l 1
 400 600 l 1
400 400 m 1
 400 550 l 1
 100 550 l 1
 100 400 l 1
 400 400 l 1
EndSplineSet
Validated: 1
EndChar

StartChar: Ccedilla
Encoding: 199 199 133
Width: 500
Flags: HMW
LayerCount: 2
Fore
SplineSet
50 600 m 1
 100 600 l 1
 450 600 l 1
 450 550 l 1
 100 550 l 1
 100 50 l 1
 450 50 l 1
 450 0 l 1
 262.5 0 l 1
 262.5 -100 l 1
 237.5 -100 l 1
 237.5 0 l 1
 100 0 l 1
 50 0 l 1
 50 50 l 1
 50 550 l 1
 50 600 l 1
EndSplineSet
Validated: 1
EndChar

StartChar: Egrave
Encoding: 200 200 134
Width: 500
Flags: HMW
LayerCount: 2
Fore
SplineSet
450 0 m 1
 100 0 l 1
 50 0 l 1
 50 50 l 1
 50 350 l 1
 50 400 l 1
 50 550 l 1
 50 600 l 1
 100 600 l 1
 450 600 l 1
 450 550 l 1
 100 550 l 1
 100 400 l 1
 450 400 l 1
 450 350 l 1
 100 350 l 1
 100 50 l 1
 450 50 l 1
 450 0 l 1
275 650 m 1
 200 800 l 1
 225 800 l 1
 300 650 l 1
 275 650 l 1
EndSplineSet
Validated: 1
EndChar

StartChar: Eacute
Encoding: 201 201 135
Width: 500
Flags: HMW
LayerCount: 2
Fore
SplineSet
50 600 m 1
 100 600 l 1
 450 600 l 1
 450 550 l 1
 100 550 l 1
 100 400 l 1
 450 400 l 1
 450 350 l 1
 100 350 l 1
 100 50 l 1
 450 50 l 1
 450 0 l 1
 100 0 l 1
 50 0 l 1
 50 50 l 1
 50 350 l 1
 50 400 l 1
 50 550 l 1
 50 600 l 1
275 800 m 1
 300 800 l 1
 225 650 l 1
 200 650 l 1
 275 800 l 1
EndSplineSet
Validated: 1
EndChar

StartChar: Ecircumflex
Encoding: 202 202 136
Width: 500
Flags: HMW
LayerCount: 2
Fore
SplineSet
50 600 m 1
 100 600 l 1
 450 600 l 1
 450 550 l 1
 100 550 l 1
 100 400 l 1
 450 400 l 1
 450 350 l 1
 100 350 l 1
 100 50 l 1
 450 50 l 1
 450 0 l 1
 100 0 l 1
 50 0 l 1
 50 50 l 1
 50 350 l 1
 50 400 l 1
 50 550 l 1
 50 600 l 1
400 675 m 1
 400 650 l 1
 250 775 l 1
 100 650 l 1
 100 675 l 1
 250 800 l 1
 400 675 l 1
EndSplineSet
Validated: 1
EndChar

StartChar: Edieresis
Encoding: 203 203 137
Width: 500
Flags: HMW
LayerCount: 2
Fore
SplineSet
50 600 m 1
 100 600 l 1
 450 600 l 1
 450 550 l 1
 100 550 l 1
 100 400 l 1
 450 400 l 1
 450 350 l 1
 100 350 l 1
 100 50 l 1
 450 50 l 1
 450 0 l 1
 100 0 l 1
 50 0 l 1
 50 50 l 1
 50 350 l 1
 50 400 l 1
 50 550 l 1
 50 600 l 1
160 650 m 1
 160 675 l 1
 185 675 l 1
 185 650 l 1
 160 650 l 1
315 650 m 1
 315 675 l 1
 340 675 l 1
 340 650 l 1
 315 650 l 1
EndSplineSet
Validated: 1
EndChar

StartChar: Igrave
Encoding: 204 204 138
Width: 400
Flags: HMW
LayerCount: 2
Fore
SplineSet
50 50 m 1
 175 50 l 1
 175 550 l 1
 50 550 l 1
 50 600 l 1
 175 600 l 1
 225 600 l 1
 350 600 l 1
 350 550 l 1
 225 550 l 1
 225 50 l 1
 350 50 l 1
 350 0 l 1
 225 0 l 1
 175 0 l 1
 50 0 l 1
 50 50 l 1
250 650 m 1
 225 650 l 1
 150 800 l 1
 175 800 l 1
 250 650 l 1
EndSplineSet
Validated: 1
EndChar

StartChar: Iacute
Encoding: 205 205 139
Width: 400
Flags: HMW
LayerCount: 2
Fore
SplineSet
50 50 m 1
 175 50 l 1
 175 550 l 1
 50 550 l 1
 50 600 l 1
 175 600 l 1
 225 600 l 1
 350 600 l 1
 350 550 l 1
 225 550 l 1
 225 50 l 1
 350 50 l 1
 350 0 l 1
 225 0 l 1
 175 0 l 1
 50 0 l 1
 50 50 l 1
250 800 m 1
 175 650 l 1
 150 650 l 1
 225 800 l 1
 250 800 l 1
EndSplineSet
Validated: 1
EndChar

StartChar: Icircumflex
Encoding: 206 206 140
Width: 400
Flags: HMW
LayerCount: 2
Fore
SplineSet
50 50 m 1
 175 50 l 1
 175 550 l 1
 50 550 l 1
 50 600 l 1
 175 600 l 1
 225 600 l 1
 350 600 l 1
 350 550 l 1
 225 550 l 1
 225 50 l 1
 350 50 l 1
 350 0 l 1
 225 0 l 1
 175 0 l 1
 50 0 l 1
 50 50 l 1
350 650 m 1
 200 775 l 1
 50 650 l 1
 50 675 l 1
 200 800 l 1
 350 675 l 1
 350 650 l 1
EndSplineSet
Validated: 1
EndChar

StartChar: Idieresis
Encoding: 207 207 141
Width: 400
Flags: HMW
LayerCount: 2
Fore
SplineSet
50 50 m 1
 175 50 l 1
 175 550 l 1
 50 550 l 1
 50 600 l 1
 175 600 l 1
 225 600 l 1
 350 600 l 1
 350 550 l 1
 225 550 l 1
 225 50 l 1
 350 50 l 1
 350 0 l 1
 225 0 l 1
 175 0 l 1
 50 0 l 1
 50 50 l 1
110 650 m 1
 110 675 l 1
 135 675 l 1
 135 650 l 1
 110 650 l 1
265 650 m 1
 265 675 l 1
 290 675 l 1
 290 650 l 1
 265 650 l 1
EndSplineSet
Validated: 1
EndChar

StartChar: Eth
Encoding: 208 208 142
Width: 600
Flags: HMW
LayerCount: 2
Fore
SplineSet
200 600 m 1
 550 600 l 1
 550 0 l 1
 50 0 l 1
 50 50 l 1
 150 50 l 1
 150 350 l 1
 50 350 l 1
 50 400 l 1
 150 400 l 1
 150 550 l 1
 50 550 l 1
 50 600 l 1
 200 600 l 1
500 50 m 1
 500 550 l 1
 200 550 l 1
 200 400 l 1
 350 400 l 1
 350 350 l 1
 200 350 l 1
 200 50 l 1
 500 50 l 1
EndSplineSet
Validated: 1
EndChar

StartChar: Ntilde
Encoding: 209 209 143
Width: 500
Flags: HMW
LayerCount: 2
Fore
SplineSet
400 400 m 1
 400 600 l 1
 450 600 l 1
 450 0 l 1
 400 0 l 1
 400 350 l 1
 100 521.4296875 l 1
 100 0 l 1
 50 0 l 1
 50 550 l 1
 50 600 l 1
 100 600 l 1
 100 571.4296875 l 1
 400 400 l 1
75 737.5 m 1
 425 737.5 l 1
 450 737.5 l 1
 450 712.5 l 1
 450 650 l 1
 425 650 l 1
 425 712.5 l 1
 75 712.5 l 1
 50 712.5 l 1
 50 737.5 l 1
 50 800 l 1
 75 800 l 1
 75 737.5 l 1
EndSplineSet
Validated: 1
EndChar

StartChar: Ograve
Encoding: 210 210 144
Width: 500
Flags: HMW
LayerCount: 2
Fore
SplineSet
400 0 m 1
 50 0 l 1
 50 600 l 1
 450 600 l 1
 450 0 l 1
 400 0 l 1
100 550 m 1
 100 50 l 1
 400 50 l 1
 400 550 l 1
 100 550 l 1
260 650 m 1
 200 800 l 1
 240 800 l 1
 300 650 l 1
 260 650 l 1
EndSplineSet
Validated: 1
EndChar

StartChar: Oacute
Encoding: 211 211 145
Width: 500
Flags: HMW
LayerCount: 2
Fore
SplineSet
100 600 m 1
 450 600 l 1
 450 0 l 1
 50 0 l 1
 50 600 l 1
 100 600 l 1
400 50 m 1
 400 550 l 1
 100 550 l 1
 100 50 l 1
 400 50 l 1
275 800 m 1
 300 800 l 1
 225 650 l 1
 200 650 l 1
 275 800 l 1
EndSplineSet
Validated: 1
EndChar

StartChar: Ocircumflex
Encoding: 212 212 146
Width: 500
Flags: HMW
LayerCount: 2
Fore
SplineSet
100 600 m 1
 450 600 l 1
 450 0 l 1
 50 0 l 1
 50 600 l 1
 100 600 l 1
400 50 m 1
 400 550 l 1
 100 550 l 1
 100 50 l 1
 400 50 l 1
400 675 m 1
 400 650 l 1
 250 775 l 1
 100 650 l 1
 100 675 l 1
 250 800 l 1
 400 675 l 1
EndSplineSet
Validated: 1
EndChar

StartChar: Otilde
Encoding: 213 213 147
Width: 500
Flags: HMW
LayerCount: 2
Fore
SplineSet
100 600 m 1
 450 600 l 1
 450 0 l 1
 50 0 l 1
 50 600 l 1
 100 600 l 1
400 50 m 1
 400 550 l 1
 100 550 l 1
 100 50 l 1
 400 50 l 1
75 737.5 m 1
 425 737.5 l 1
 450 737.5 l 1
 450 712.5 l 1
 450 650 l 1
 425 650 l 1
 425 712.5 l 1
 75 712.5 l 1
 50 712.5 l 1
 50 737.5 l 1
 50 800 l 1
 75 800 l 1
 75 737.5 l 1
EndSplineSet
Validated: 1
EndChar

StartChar: Odieresis
Encoding: 214 214 148
Width: 500
Flags: HMW
LayerCount: 2
Fore
SplineSet
100 600 m 1
 450 600 l 1
 450 0 l 1
 50 0 l 1
 50 600 l 1
 100 600 l 1
400 50 m 1
 400 550 l 1
 100 550 l 1
 100 50 l 1
 400 50 l 1
160 650 m 1
 160 675 l 1
 185 675 l 1
 185 650 l 1
 160 650 l 1
315 650 m 1
 315 675 l 1
 340 675 l 1
 340 650 l 1
 315 650 l 1
EndSplineSet
Validated: 1
EndChar

StartChar: multiply
Encoding: 215 215 149
Width: 400
Flags: HMW
LayerCount: 2
Fore
SplineSet
100 100 m 1
 50 100 l 1
 175 250 l 1
 50 400 l 1
 100 400 l 1
 200 280 l 1
 300 400 l 1
 350 400 l 1
 225 250 l 1
 350 100 l 1
 300 100 l 1
 200 220 l 1
 100 100 l 1
EndSplineSet
Validated: 1
EndChar

StartChar: Oslash
Encoding: 216 216 150
Width: 500
Flags: HMW
LayerCount: 2
Fore
SplineSet
100 600 m 1
 450 600 l 1
 450 0 l 1
 50 0 l 1
 50 600 l 1
 100 600 l 1
370.830078125 550 m 1
 100 550 l 1
 100 85.7099609375 l 1
 370.830078125 550 l 1
129.169921875 50 m 1
 400 50 l 1
 400 514.290039062 l 1
 129.169921875 50 l 1
EndSplineSet
Validated: 1
EndChar

StartChar: Ugrave
Encoding: 217 217 151
Width: 500
Flags: HMW
LayerCount: 2
Fore
SplineSet
400 50 m 1
 400 600 l 1
 450 600 l 1
 450 50 l 1
 450 0 l 1
 400 0 l 1
 100 0 l 1
 50 0 l 1
 50 50 l 1
 50 600 l 1
 100 600 l 1
 100 50 l 1
 400 50 l 1
200 800 m 1
 225 800 l 1
 300 650 l 1
 275 650 l 1
 200 800 l 1
EndSplineSet
Validated: 1
EndChar

StartChar: Uacute
Encoding: 218 218 152
Width: 500
Flags: HMW
LayerCount: 2
Fore
SplineSet
400 50 m 1
 400 600 l 1
 450 600 l 1
 450 50 l 1
 450 0 l 1
 400 0 l 1
 100 0 l 1
 50 0 l 1
 50 50 l 1
 50 600 l 1
 100 600 l 1
 100 50 l 1
 400 50 l 1
275 800 m 1
 300 800 l 1
 225 650 l 1
 200 650 l 1
 275 800 l 1
EndSplineSet
Validated: 1
EndChar

StartChar: Ucircumflex
Encoding: 219 219 153
Width: 500
Flags: HMW
LayerCount: 2
Fore
SplineSet
400 50 m 1
 400 600 l 1
 450 600 l 1
 450 50 l 1
 450 0 l 1
 400 0 l 1
 100 0 l 1
 50 0 l 1
 50 50 l 1
 50 600 l 1
 100 600 l 1
 100 50 l 1
 400 50 l 1
400 675 m 1
 400 650 l 1
 250 775 l 1
 100 650 l 1
 100 675 l 1
 250 800 l 1
 400 675 l 1
EndSplineSet
Validated: 1
EndChar

StartChar: Udieresis
Encoding: 220 220 154
Width: 500
Flags: HMW
LayerCount: 2
Fore
SplineSet
400 0 m 1
 100 0 l 1
 50 0 l 1
 50 50 l 1
 50 600 l 1
 100 600 l 1
 100 50 l 1
 400 50 l 1
 400 600 l 1
 450 600 l 1
 450 50 l 1
 450 0 l 1
 400 0 l 1
160 650 m 1
 160 675 l 1
 185 675 l 1
 185 650 l 1
 160 650 l 1
315 650 m 1
 315 675 l 1
 340 675 l 1
 340 650 l 1
 315 650 l 1
EndSplineSet
Validated: 1
EndChar

StartChar: Yacute
Encoding: 221 221 155
Width: 500
Flags: HMW
LayerCount: 2
Fore
SplineSet
400 400 m 1
 400 600 l 1
 450 600 l 1
 450 400 l 1
 450 350 l 1
 400 350 l 1
 275 350 l 1
 275 0 l 1
 225 0 l 1
 225 350 l 1
 100 350 l 1
 50 350 l 1
 50 400 l 1
 50 600 l 1
 100 600 l 1
 100 400 l 1
 225 400 l 1
 275 400 l 1
 400 400 l 1
300 800 m 1
 225 650 l 1
 200 650 l 1
 275 800 l 1
 300 800 l 1
EndSplineSet
Validated: 1
EndChar

StartChar: Thorn
Encoding: 222 222 156
Width: 500
Flags: HMW
LayerCount: 2
Fore
SplineSet
100 500 m 1
 450 500 l 1
 450 100 l 1
 100 100 l 1
 100 0 l 1
 50 0 l 1
 50 600 l 1
 100 600 l 1
 100 500 l 1
400 150 m 1
 400 450 l 1
 100 450 l 1
 100 150 l 1
 400 150 l 1
EndSplineSet
Validated: 1
EndChar

StartChar: germandbls
Encoding: 223 223 157
Width: 500
Flags: HMW
LayerCount: 2
Fore
SplineSet
350 400 m 1
 400 400 l 1
 450 400 l 1
 450 350 l 1
 450 50 l 1
 450 0 l 1
 400 0 l 1
 200 0 l 1
 200 50 l 1
 400 50 l 1
 400 350 l 1
 350 350 l 1
 300 350 l 1
 200 350 l 1
 200 400 l 1
 300 400 l 1
 300 550 l 1
 100 550 l 1
 100 0 l 1
 50 0 l 1
 50 550 l 1
 50 600 l 1
 100 600 l 1
 300 600 l 1
 350 600 l 1
 350 550 l 1
 350 400 l 1
EndSplineSet
Validated: 1
EndChar

StartChar: agrave
Encoding: 224 224 158
Width: 500
Flags: HMW
LayerCount: 2
Fore
SplineSet
50 400 m 1
 450 400 l 1
 450 0 l 1
 50 0 l 1
 50 225 l 1
 400 225 l 1
 400 350 l 1
 50 350 l 1
 50 400 l 1
400 50 m 1
 400 175 l 1
 100 175 l 1
 100 50 l 1
 400 50 l 1
225 600 m 1
 300 450 l 1
 275 450 l 1
 200 600 l 1
 225 600 l 1
EndSplineSet
Validated: 1
EndChar

StartChar: aacute
Encoding: 225 225 159
Width: 500
Flags: HMW
LayerCount: 2
Fore
SplineSet
50 400 m 1
 450 400 l 1
 450 0 l 1
 50 0 l 1
 50 225 l 1
 400 225 l 1
 400 350 l 1
 50 350 l 1
 50 400 l 1
400 50 m 1
 400 175 l 1
 100 175 l 1
 100 50 l 1
 400 50 l 1
225 450 m 1
 200 450 l 1
 275 600 l 1
 300 600 l 1
 225 450 l 1
EndSplineSet
Validated: 1
EndChar

StartChar: acircumflex
Encoding: 226 226 160
Width: 500
Flags: HMW
LayerCount: 2
Fore
SplineSet
50 400 m 1
 450 400 l 1
 450 0 l 1
 50 0 l 1
 50 225 l 1
 400 225 l 1
 400 350 l 1
 50 350 l 1
 50 400 l 1
400 50 m 1
 400 175 l 1
 100 175 l 1
 100 50 l 1
 400 50 l 1
400 475 m 1
 400 450 l 1
 250 575 l 1
 100 450 l 1
 100 475 l 1
 250 600 l 1
 400 475 l 1
EndSplineSet
Validated: 1
EndChar

StartChar: atilde
Encoding: 227 227 161
Width: 500
Flags: HMW
LayerCount: 2
Fore
SplineSet
50 400 m 1
 450 400 l 1
 450 0 l 1
 50 0 l 1
 50 225 l 1
 400 225 l 1
 400 350 l 1
 50 350 l 1
 50 400 l 1
400 50 m 1
 400 175 l 1
 100 175 l 1
 100 50 l 1
 400 50 l 1
75 537.5 m 1
 425 537.5 l 1
 450 537.5 l 1
 450 512.5 l 1
 450 450 l 1
 425 450 l 1
 425 512.5 l 1
 75 512.5 l 1
 50 512.5 l 1
 50 537.5 l 1
 50 600 l 1
 75 600 l 1
 75 537.5 l 1
EndSplineSet
Validated: 1
EndChar

StartChar: adieresis
Encoding: 228 228 162
Width: 500
Flags: HMW
LayerCount: 2
Fore
SplineSet
50 400 m 1
 450 400 l 1
 450 0 l 1
 50 0 l 1
 50 225 l 1
 400 225 l 1
 400 350 l 1
 50 350 l 1
 50 400 l 1
400 50 m 1
 400 175 l 1
 100 175 l 1
 100 50 l 1
 400 50 l 1
160 450 m 1
 160 475 l 1
 185 475 l 1
 185 450 l 1
 160 450 l 1
315 450 m 1
 315 475 l 1
 340 475 l 1
 340 450 l 1
 315 450 l 1
EndSplineSet
Validated: 1
EndChar

StartChar: aring
Encoding: 229 229 163
Width: 500
Flags: HMW
LayerCount: 2
Fore
SplineSet
50 400 m 1
 450 400 l 1
 450 0 l 1
 50 0 l 1
 50 225 l 1
 400 225 l 1
 400 350 l 1
 50 350 l 1
 50 400 l 1
400 50 m 1
 400 175 l 1
 100 175 l 1
 100 50 l 1
 400 50 l 1
325 450 m 1
 175 450 l 1
 175 600 l 1
 325 600 l 1
 325 450 l 1
200 475 m 1
 300 475 l 1
 300 575 l 1
 200 575 l 1
 200 475 l 1
EndSplineSet
Validated: 1
EndChar

StartChar: ae
Encoding: 230 230 164
Width: 850
Flags: HMW
LayerCount: 2
Fore
SplineSet
750 400 m 1
 800 400 l 1
 800 175 l 1
 450 175 l 1
 450 50 l 1
 800 50 l 1
 800 0 l 1
 50 0 l 1
 50 225 l 1
 400 225 l 1
 400 350 l 1
 50 350 l 1
 50 400 l 1
 750 400 l 1
400 50 m 1
 400 175 l 1
 100 175 l 1
 100 50 l 1
 400 50 l 1
750 225 m 1
 750 350 l 1
 450 350 l 1
 450 225 l 1
 750 225 l 1
EndSplineSet
Validated: 1
EndChar

StartChar: ccedilla
Encoding: 231 231 165
Width: 500
Flags: HMW
LayerCount: 2
Fore
SplineSet
50 400 m 1
 100 400 l 1
 450 400 l 1
 450 350 l 1
 100 350 l 1
 100 50 l 1
 450 50 l 1
 450 0 l 1
 262.5 0 l 1
 262.5 -100 l 1
 237.5 -100 l 1
 237.5 0 l 1
 100 0 l 1
 50 0 l 1
 50 50 l 1
 50 350 l 1
 50 400 l 1
EndSplineSet
Validated: 1
EndChar

StartChar: egrave
Encoding: 232 232 166
Width: 500
Flags: HMW
LayerCount: 2
Fore
SplineSet
100 400 m 1
 450 400 l 1
 450 175 l 1
 100 175 l 1
 100 50 l 1
 450 50 l 1
 450 0 l 1
 50 0 l 1
 50 400 l 1
 100 400 l 1
400 225 m 1
 400 350 l 1
 100 350 l 1
 100 225 l 1
 400 225 l 1
225 600 m 1
 300 450 l 1
 275 450 l 1
 200 600 l 1
 225 600 l 1
EndSplineSet
Validated: 1
EndChar

StartChar: eacute
Encoding: 233 233 167
Width: 500
Flags: HMW
LayerCount: 2
Fore
SplineSet
100 400 m 1
 450 400 l 1
 450 175 l 1
 100 175 l 1
 100 50 l 1
 450 50 l 1
 450 0 l 1
 50 0 l 1
 50 400 l 1
 100 400 l 1
400 225 m 1
 400 350 l 1
 100 350 l 1
 100 225 l 1
 400 225 l 1
275 600 m 1
 300 600 l 1
 225 450 l 1
 200 450 l 1
 275 600 l 1
EndSplineSet
Validated: 1
EndChar

StartChar: ecircumflex
Encoding: 234 234 168
Width: 500
Flags: HMW
LayerCount: 2
Fore
SplineSet
100 400 m 1
 450 400 l 1
 450 175 l 1
 100 175 l 1
 100 50 l 1
 450 50 l 1
 450 0 l 1
 50 0 l 1
 50 400 l 1
 100 400 l 1
400 225 m 1
 400 350 l 1
 100 350 l 1
 100 225 l 1
 400 225 l 1
400 475 m 1
 400 450 l 1
 250 575 l 1
 100 450 l 1
 100 475 l 1
 250 600 l 1
 400 475 l 1
EndSplineSet
Validated: 1
EndChar

StartChar: edieresis
Encoding: 235 235 169
Width: 500
Flags: HMW
LayerCount: 2
Fore
SplineSet
100 400 m 1
 450 400 l 1
 450 175 l 1
 100 175 l 1
 100 50 l 1
 450 50 l 1
 450 0 l 1
 50 0 l 1
 50 400 l 1
 100 400 l 1
400 225 m 1
 400 350 l 1
 100 350 l 1
 100 225 l 1
 400 225 l 1
160 450 m 1
 160 475 l 1
 185 475 l 1
 185 450 l 1
 160 450 l 1
315 450 m 1
 315 475 l 1
 340 475 l 1
 340 450 l 1
 315 450 l 1
EndSplineSet
Validated: 1
EndChar

StartChar: igrave
Encoding: 236 236 170
Width: 200
Flags: HMW
LayerCount: 2
Fore
SplineSet
75 0 m 1
 75 400 l 1
 125 400 l 1
 125 0 l 1
 75 0 l 1
150 450 m 1
 125 450 l 1
 50 600 l 1
 75 600 l 1
 150 450 l 1
EndSplineSet
Validated: 1
EndChar

StartChar: iacute
Encoding: 237 237 171
Width: 200
Flags: HMW
LayerCount: 2
Fore
SplineSet
75 0 m 1
 75 400 l 1
 125 400 l 1
 125 0 l 1
 75 0 l 1
125 600 m 1
 150 600 l 1
 75 450 l 1
 50 450 l 1
 125 600 l 1
EndSplineSet
Validated: 1
EndChar

StartChar: icircumflex
Encoding: 238 238 172
Width: 300
Flags: HMW
LayerCount: 2
Fore
SplineSet
125 0 m 1
 125 400 l 1
 175 400 l 1
 175 0 l 1
 125 0 l 1
300 475 m 1
 300 450 l 1
 150 575 l 1
 0 450 l 1
 0 475 l 1
 150 600 l 1
 300 475 l 1
EndSplineSet
Validated: 1
EndChar

StartChar: idieresis
Encoding: 239 239 173
Width: 300
Flags: HMW
LayerCount: 2
Fore
SplineSet
125 0 m 1
 125 400 l 1
 175 400 l 1
 175 0 l 1
 125 0 l 1
60 450 m 1
 60 475 l 1
 85 475 l 1
 85 450 l 1
 60 450 l 1
215 450 m 1
 215 475 l 1
 240 475 l 1
 240 450 l 1
 215 450 l 1
EndSplineSet
Validated: 1
EndChar

StartChar: eth
Encoding: 240 240 174
Width: 600
Flags: HMW
LayerCount: 2
Fore
SplineSet
450 600 m 1
 450 525 l 1
 550 525 l 1
 550 475 l 1
 450 475 l 1
 450 0 l 1
 400 0 l 1
 400 1.6298828125 l 1
 100 1.6298828125 l 1
 100 0 l 1
 50 0 l 1
 50 400 l 1
 400 400 l 1
 400 475 l 1
 250 475 l 1
 250 525 l 1
 400 525 l 1
 400 600 l 1
 450 600 l 1
400 51.6298828125 m 1
 400 350 l 1
 100 350 l 1
 100 51.6298828125 l 1
 400 51.6298828125 l 1
EndSplineSet
Validated: 1
EndChar

StartChar: ntilde
Encoding: 241 241 175
Width: 500
Flags: HMW
LayerCount: 2
Fore
SplineSet
75 537.5 m 1
 425 537.5 l 1
 450 537.5 l 1
 450 512.5 l 1
 450 450 l 1
 425 450 l 1
 425 512.5 l 1
 75 512.5 l 1
 50 512.5 l 1
 50 537.5 l 1
 50 600 l 1
 75 600 l 1
 75 537.5 l 1
100 400 m 1
 400 400 l 1
 450 400 l 1
 450 350 l 1
 450 0 l 1
 400 0 l 1
 400 350 l 1
 100 350 l 1
 100 0 l 1
 50 0 l 1
 50 350 l 1
 50 400 l 1
 100 400 l 1
EndSplineSet
Validated: 1
EndChar

StartChar: ograve
Encoding: 242 242 176
Width: 500
Flags: HMW
LayerCount: 2
Fore
SplineSet
100 400 m 1
 450 400 l 1
 450 0 l 1
 50 0 l 1
 50 400 l 1
 100 400 l 1
400 50 m 1
 400 350 l 1
 100 350 l 1
 100 50 l 1
 400 50 l 1
225 600 m 1
 300 450 l 1
 275 450 l 1
 200 600 l 1
 225 600 l 1
EndSplineSet
Validated: 1
EndChar

StartChar: oacute
Encoding: 243 243 177
Width: 500
Flags: HMW
LayerCount: 2
Fore
SplineSet
100 400 m 1
 450 400 l 1
 450 0 l 1
 50 0 l 1
 50 400 l 1
 100 400 l 1
400 50 m 1
 400 350 l 1
 100 350 l 1
 100 50 l 1
 400 50 l 1
275 600 m 1
 300 600 l 1
 225 450 l 1
 200 450 l 1
 275 600 l 1
EndSplineSet
Validated: 1
EndChar

StartChar: ocircumflex
Encoding: 244 244 178
Width: 500
Flags: HMW
LayerCount: 2
Fore
SplineSet
100 400 m 1
 450 400 l 1
 450 0 l 1
 50 0 l 1
 50 400 l 1
 100 400 l 1
400 50 m 1
 400 350 l 1
 100 350 l 1
 100 50 l 1
 400 50 l 1
400 475 m 1
 400 450 l 1
 250 575 l 1
 100 450 l 1
 100 475 l 1
 250 600 l 1
 400 475 l 1
EndSplineSet
Validated: 1
EndChar

StartChar: otilde
Encoding: 245 245 179
Width: 500
Flags: HMW
LayerCount: 2
Fore
SplineSet
100 400 m 1
 450 400 l 1
 450 0 l 1
 50 0 l 1
 50 400 l 1
 100 400 l 1
400 50 m 1
 400 350 l 1
 100 350 l 1
 100 50 l 1
 400 50 l 1
75 537.5 m 1
 425 537.5 l 1
 450 537.5 l 1
 450 512.5 l 1
 450 450 l 1
 425 450 l 1
 425 512.5 l 1
 75 512.5 l 1
 50 512.5 l 1
 50 537.5 l 1
 50 600 l 1
 75 600 l 1
 75 537.5 l 1
EndSplineSet
Validated: 1
EndChar

StartChar: odieresis
Encoding: 246 246 180
Width: 500
Flags: HMW
LayerCount: 2
Fore
SplineSet
100 400 m 1
 450 400 l 1
 450 0 l 1
 50 0 l 1
 50 400 l 1
 100 400 l 1
400 50 m 1
 400 350 l 1
 100 350 l 1
 100 50 l 1
 400 50 l 1
160 450 m 1
 160 475 l 1
 185 475 l 1
 185 450 l 1
 160 450 l 1
315 450 m 1
 315 475 l 1
 340 475 l 1
 340 450 l 1
 315 450 l 1
EndSplineSet
Validated: 1
EndChar

StartChar: divide
Encoding: 247 247 181
Width: 400
Flags: HMW
LayerCount: 2
Fore
SplineSet
175 350 m 1
 175 400 l 1
 225 400 l 1
 225 350 l 1
 175 350 l 1
175 100 m 1
 175 150 l 1
 225 150 l 1
 225 100 l 1
 175 100 l 1
50 225 m 1
 50 275 l 1
 350 275 l 1
 350 225 l 1
 50 225 l 1
EndSplineSet
Validated: 1
EndChar

StartChar: oslash
Encoding: 248 248 182
Width: 500
Flags: HMW
LayerCount: 2
Fore
SplineSet
400 400 m 1
 450 400 l 1
 450 0 l 1
 50 0 l 1
 50 400 l 1
 400 400 l 1
356.25 350 m 1
 100 350 l 1
 100 57.1396484375 l 1
 356.25 350 l 1
143.75 50 m 1
 400 50 l 1
 400 342.860351562 l 1
 143.75 50 l 1
EndSplineSet
Validated: 1
EndChar

StartChar: ugrave
Encoding: 249 249 183
Width: 500
Flags: HMW
LayerCount: 2
Fore
SplineSet
400 50 m 1
 400 400 l 1
 450 400 l 1
 450 50 l 1
 450 0 l 1
 400 0 l 1
 100 0 l 1
 50 0 l 1
 50 50 l 1
 50 400 l 1
 100 400 l 1
 100 50 l 1
 400 50 l 1
275 450 m 1
 200 600 l 1
 225 600 l 1
 300 450 l 1
 275 450 l 1
EndSplineSet
Validated: 1
EndChar

StartChar: uacute
Encoding: 250 250 184
Width: 500
Flags: HMW
LayerCount: 2
Fore
SplineSet
400 50 m 1
 400 400 l 1
 450 400 l 1
 450 50 l 1
 450 0 l 1
 400 0 l 1
 100 0 l 1
 50 0 l 1
 50 50 l 1
 50 400 l 1
 100 400 l 1
 100 50 l 1
 400 50 l 1
275 600 m 1
 300 600 l 1
 225 450 l 1
 200 450 l 1
 275 600 l 1
EndSplineSet
Validated: 1
EndChar

StartChar: ucircumflex
Encoding: 251 251 185
Width: 500
Flags: HMW
LayerCount: 2
Fore
SplineSet
400 50 m 1
 400 400 l 1
 450 400 l 1
 450 50 l 1
 450 0 l 1
 400 0 l 1
 100 0 l 1
 50 0 l 1
 50 50 l 1
 50 400 l 1
 100 400 l 1
 100 50 l 1
 400 50 l 1
400 475 m 1
 400 450 l 1
 250 575 l 1
 100 450 l 1
 100 475 l 1
 250 600 l 1
 400 475 l 1
EndSplineSet
Validated: 1
EndChar

StartChar: udieresis
Encoding: 252 252 186
Width: 500
Flags: HMW
LayerCount: 2
Fore
SplineSet
400 50 m 1
 400 400 l 1
 450 400 l 1
 450 50 l 1
 450 0 l 1
 400 0 l 1
 100 0 l 1
 50 0 l 1
 50 50 l 1
 50 400 l 1
 100 400 l 1
 100 50 l 1
 400 50 l 1
160 450 m 1
 160 475 l 1
 185 475 l 1
 185 450 l 1
 160 450 l 1
315 450 m 1
 315 475 l 1
 340 475 l 1
 340 450 l 1
 315 450 l 1
EndSplineSet
Validated: 1
EndChar

StartChar: yacute
Encoding: 253 253 187
Width: 500
Flags: HMW
LayerCount: 2
Fore
SplineSet
400 50 m 1
 400 400 l 1
 450 400 l 1
 450 50 l 1
 450 0 l 1
 450 -150 l 1
 450 -200 l 1
 400 -200 l 1
 50 -200 l 1
 50 -150 l 1
 400 -150 l 1
 400 0 l 1
 100 0 l 1
 50 0 l 1
 50 50 l 1
 50 400 l 1
 100 400 l 1
 100 50 l 1
 400 50 l 1
275 600 m 1
 300 600 l 1
 225 450 l 1
 200 450 l 1
 275 600 l 1
EndSplineSet
Validated: 1
EndChar

StartChar: thorn
Encoding: 254 254 188
Width: 500
Flags: HMW
LayerCount: 2
Fore
SplineSet
100 400 m 1
 450 400 l 1
 450 0 l 1
 100 0 l 1
 100 -200 l 1
 50 -200 l 1
 50 600 l 1
 100 600 l 1
 100 400 l 1
400 50 m 1
 400 350 l 1
 100 350 l 1
 100 50 l 1
 400 50 l 1
EndSplineSet
Validated: 1
EndChar

StartChar: ydieresis
Encoding: 255 255 189
Width: 500
Flags: HMW
LayerCount: 2
Fore
SplineSet
400 50 m 1
 400 400 l 1
 450 400 l 1
 450 50 l 1
 450 0 l 1
 450 -150 l 1
 450 -200 l 1
 400 -200 l 1
 50 -200 l 1
 50 -150 l 1
 400 -150 l 1
 400 0 l 1
 100 0 l 1
 50 0 l 1
 50 50 l 1
 50 400 l 1
 100 400 l 1
 100 50 l 1
 400 50 l 1
160 450 m 1
 160 475 l 1
 185 475 l 1
 185 450 l 1
 160 450 l 1
315 450 m 1
 315 475 l 1
 340 475 l 1
 340 450 l 1
 315 450 l 1
EndSplineSet
Validated: 1
EndChar
